<svg width="40" height="40" viewBox="0 0 40 40" fill="none" xmlns="http://www.w3.org/2000/svg">
<path d="M20.4344 7.91336C20.3181 7.80209 20.1633 7.73999 20.0023 7.73999C19.8414 7.73999 19.6866 7.80209 19.5703 7.91336L5.1875 21.6532C5.12642 21.7116 5.07782 21.7818 5.04466 21.8596C5.01149 21.9373 4.99444 22.021 4.99453 22.1055L4.99219 35.0008C4.99219 35.6639 5.25558 36.2998 5.72442 36.7686C6.19326 37.2374 6.82915 37.5008 7.49219 37.5008H15C15.3315 37.5008 15.6495 37.3691 15.8839 37.1347C16.1183 36.9003 16.25 36.5824 16.25 36.2508V25.6258C16.25 25.4601 16.3158 25.3011 16.4331 25.1839C16.5503 25.0667 16.7092 25.0008 16.875 25.0008H23.125C23.2908 25.0008 23.4497 25.0667 23.5669 25.1839C23.6841 25.3011 23.75 25.4601 23.75 25.6258V36.2508C23.75 36.5824 23.8817 36.9003 24.1161 37.1347C24.3505 37.3691 24.6685 37.5008 25 37.5008H32.5047C33.1677 37.5008 33.8036 37.2374 34.2724 36.7686C34.7413 36.2998 35.0047 35.6639 35.0047 35.0008V22.1055C35.0048 22.021 34.9877 21.9373 34.9546 21.8596C34.9214 21.7818 34.8728 21.7116 34.8117 21.6532L20.4344 7.91336Z" fill="#718096"/>
<path d="M38.3533 19.0765L32.5096 13.4859V5.00232C32.5096 4.6708 32.3779 4.35286 32.1435 4.11844C31.9091 3.88402 31.5911 3.75232 31.2596 3.75232H27.5096C27.1781 3.75232 26.8601 3.88402 26.6257 4.11844C26.3913 4.35286 26.2596 4.6708 26.2596 5.00232V7.50232L21.7346 3.17576C21.3112 2.74763 20.6815 2.50232 20.001 2.50232C19.3229 2.50232 18.6947 2.74763 18.2713 3.17654L1.65413 19.075C1.16819 19.5437 1.10726 20.3148 1.54944 20.8226C1.66048 20.9508 1.79644 21.0551 1.94905 21.129C2.10166 21.203 2.26772 21.2451 2.43713 21.2529C2.60654 21.2606 2.77576 21.2338 2.93448 21.1741C3.0932 21.1144 3.23811 21.023 3.36038 20.9054L19.5713 5.41482C19.6876 5.30355 19.8424 5.24145 20.0033 5.24145C20.1643 5.24145 20.3191 5.30355 20.4354 5.41482L36.6479 20.9054C36.8867 21.1345 37.2066 21.2595 37.5374 21.253C37.8682 21.2466 38.183 21.1092 38.4127 20.8711C38.8924 20.3742 38.8526 19.5539 38.3533 19.0765Z" fill="#718096"/>
</svg>
