<svg width="58" height="26" viewBox="0 0 58 26" fill="none" xmlns="http://www.w3.org/2000/svg">
<path d="M43.2324 11.0922C43.2321 10.8402 43.1319 10.5987 42.9537 10.4205C42.7755 10.2423 42.534 10.1421 42.282 10.1418H40.6977V12.0426H42.282C42.534 12.0423 42.7755 11.942 42.9537 11.7639C43.1319 11.5857 43.2321 11.3441 43.2324 11.0922ZM5.8707 11.0922C5.87039 10.8402 5.77016 10.5987 5.592 10.4205C5.41383 10.2423 5.17228 10.1421 4.92031 10.1418H3.33594V12.0426H4.92031C5.17228 12.0423 5.41383 11.942 5.592 11.7639C5.77016 11.5857 5.87039 11.3441 5.8707 11.0922Z" fill="white"/>
<path d="M52.5887 0.116394H5.41133C4.73856 0.116394 4.07239 0.248925 3.45085 0.506416C2.82931 0.763907 2.26459 1.14131 1.78893 1.61708C1.31326 2.09286 0.935985 2.65767 0.678636 3.27927C0.421286 3.90086 0.288909 4.56707 0.289063 5.23983V20.7601C0.288909 21.4329 0.421286 22.0991 0.678636 22.7207C0.935985 23.3423 1.31326 23.9071 1.78893 24.3829C2.26459 24.8587 2.82931 25.2361 3.45085 25.4936C4.07239 25.7511 4.73856 25.8836 5.41133 25.8836H52.5887C53.2614 25.8836 53.9276 25.7511 54.5491 25.4936C55.1707 25.2361 55.7354 24.8587 56.2111 24.3829C56.6867 23.9071 57.064 23.3423 57.3214 22.7207C57.5787 22.0991 57.7111 21.4329 57.7109 20.7601V5.23983C57.7111 4.56707 57.5787 3.90086 57.3214 3.27927C57.064 2.65767 56.6867 2.09286 56.2111 1.61708C55.7354 1.14131 55.1707 0.763907 54.5491 0.506416C53.9276 0.248925 53.2614 0.116394 52.5887 0.116394ZM7.00156 16.1172C7.06201 16.1885 7.10763 16.2711 7.13575 16.3603C7.16388 16.4494 7.17395 16.5433 7.16537 16.6364C7.15679 16.7294 7.12974 16.8199 7.08579 16.9024C7.04185 16.9849 6.98189 17.0578 6.90943 17.1169C6.83698 17.1759 6.75347 17.2199 6.6638 17.2463C6.57413 17.2727 6.48009 17.281 6.38719 17.2706C6.29429 17.2602 6.20439 17.2315 6.12275 17.1859C6.04111 17.1404 5.96937 17.079 5.91172 17.0055L3.33359 13.8414V16.5578C3.33359 16.7443 3.25952 16.9231 3.12765 17.055C2.99579 17.1868 2.81695 17.2609 2.63047 17.2609C2.44399 17.2609 2.26515 17.1868 2.13328 17.055C2.00142 16.9231 1.92734 16.7443 1.92734 16.5578V9.43866C1.92734 9.25218 2.00142 9.07334 2.13328 8.94148C2.26515 8.80961 2.44399 8.73554 2.63047 8.73554H4.92031C5.22979 8.73554 5.53624 8.79649 5.82216 8.91492C6.10808 9.03336 6.36788 9.20694 6.58671 9.42578C6.80554 9.64461 6.97913 9.90441 7.09756 10.1903C7.216 10.4762 7.27695 10.7827 7.27695 11.0922C7.27695 11.4017 7.216 11.7081 7.09756 11.994C6.97913 12.2799 6.80554 12.5397 6.58671 12.7586C6.36788 12.9774 6.10808 13.151 5.82216 13.2694C5.53624 13.3879 5.22979 13.4488 4.92031 13.4488H4.82773L7.00156 16.1172ZM12.4367 12.2969C12.6232 12.2969 12.802 12.3709 12.9339 12.5028C13.0658 12.6347 13.1398 12.8135 13.1398 13C13.1398 13.1865 13.0658 13.3653 12.9339 13.4972C12.802 13.629 12.6232 13.7031 12.4367 13.7031H9.78125V15.8582H12.4391C12.6255 15.8582 12.8044 15.9323 12.9362 16.0641C13.0681 16.196 13.1422 16.3748 13.1422 16.5613C13.1422 16.7478 13.0681 16.9266 12.9362 17.0585C12.8044 17.1904 12.6255 17.2644 12.4391 17.2644H9.3125C9.06386 17.2644 8.8254 17.1657 8.64959 16.9899C8.47377 16.814 8.375 16.5756 8.375 16.3269V9.67069C8.375 9.42205 8.47377 9.18359 8.64959 9.00778C8.8254 8.83196 9.06386 8.73319 9.3125 8.73319H12.4414C12.6279 8.73319 12.8067 8.80727 12.9386 8.93913C13.0705 9.07099 13.1445 9.24984 13.1445 9.43632C13.1445 9.6228 13.0705 9.80164 12.9386 9.9335C12.8067 10.0654 12.6279 10.1394 12.4414 10.1394H9.78125V12.2969H12.4367ZM20.7055 14.4848C20.1805 16.1476 18.8094 17.2644 17.293 17.2644C15.2891 17.2644 13.6484 15.3519 13.6484 13C13.6484 10.648 15.2891 8.73554 17.293 8.73554C18.4566 8.73554 19.5195 9.36132 20.2121 10.4512C20.2634 10.5291 20.2986 10.6165 20.3158 10.7082C20.333 10.7999 20.3317 10.8941 20.3121 10.9853C20.2925 11.0765 20.255 11.1629 20.2016 11.2395C20.1483 11.316 20.0803 11.3812 20.0015 11.4312C19.9227 11.4812 19.8348 11.515 19.7428 11.5307C19.6508 11.5464 19.5567 11.5436 19.4658 11.5225C19.3749 11.5014 19.2891 11.4625 19.2134 11.4079C19.1378 11.3533 19.0737 11.2843 19.025 11.2047C18.5961 10.5297 17.9703 10.1418 17.293 10.1418C16.0613 10.1418 15.0547 11.4238 15.0547 13C15.0547 14.5762 16.0566 15.8582 17.2883 15.8582C17.8988 15.8582 18.4777 15.5266 18.8937 14.9769H18.1449C17.9584 14.9769 17.7796 14.9029 17.6477 14.771C17.5159 14.6391 17.4418 14.4603 17.4418 14.2738C17.4418 14.0873 17.5159 13.9085 17.6477 13.7766C17.7796 13.6448 17.9584 13.5707 18.1449 13.5707H20.0293C20.1398 13.5706 20.2487 13.5965 20.3473 13.6463C20.4459 13.6962 20.5313 13.7685 20.5967 13.8575C20.6621 13.9466 20.7056 14.0497 20.7237 14.1587C20.7418 14.2677 20.7339 14.3794 20.7008 14.4848H20.7055ZM22.8383 16.5613C22.8383 16.7478 22.7642 16.9266 22.6323 17.0585C22.5005 17.1904 22.3216 17.2644 22.1352 17.2644C21.9487 17.2644 21.7698 17.1904 21.638 17.0585C21.5061 16.9266 21.432 16.7478 21.432 16.5613V9.43866C21.432 9.25218 21.5061 9.07334 21.638 8.94148C21.7698 8.80961 21.9487 8.73554 22.1352 8.73554C22.3216 8.73554 22.5005 8.80961 22.6323 8.94148C22.7642 9.07334 22.8383 9.25218 22.8383 9.43866V16.5613ZM28.3766 14.9336C28.3361 15.5644 28.0573 16.1562 27.5966 16.5891C27.1359 17.0219 26.5278 17.2634 25.8957 17.2644C25.843 17.2644 25.7902 17.2644 25.7375 17.2644C25.3206 17.2387 24.917 17.1081 24.564 16.8849C24.2111 16.6616 23.9202 16.3528 23.7184 15.9871C23.6333 15.8245 23.6152 15.6351 23.6679 15.4594C23.7206 15.2836 23.8399 15.1354 24.0003 15.0464C24.1607 14.9574 24.3496 14.9346 24.5266 14.9829C24.7036 15.0313 24.8547 15.1469 24.9477 15.3051C25.0357 15.4647 25.1626 15.5995 25.3167 15.6969C25.4708 15.7943 25.647 15.8512 25.8289 15.8623C26.0109 15.8734 26.1927 15.8384 26.3575 15.7604C26.5222 15.6824 26.6646 15.5641 26.7714 15.4164C26.8782 15.2686 26.9459 15.0963 26.9683 14.9154C26.9906 14.7345 26.9669 14.5508 26.8993 14.3815C26.8317 14.2123 26.7224 14.0628 26.5816 13.9471C26.4407 13.8313 26.2729 13.7531 26.0938 13.7195C26.0489 13.723 26.0038 13.723 25.959 13.7195C25.9094 13.7149 25.8601 13.7075 25.8113 13.6973C25.4158 13.648 25.038 13.5044 24.7096 13.2786C24.3812 13.0527 24.1119 12.7512 23.9243 12.3995C23.7368 12.0478 23.6366 11.6562 23.6321 11.2577C23.6276 10.8592 23.719 10.4654 23.8985 10.1095C24.078 9.75371 24.3404 9.44623 24.6636 9.21302C24.9868 8.97981 25.3613 8.82771 25.7556 8.76952C26.1499 8.71134 26.5524 8.74878 26.9292 8.87869C27.306 9.00861 27.6461 9.22718 27.9207 9.516C27.9871 9.58232 28.0395 9.66125 28.0749 9.74815C28.1103 9.83504 28.1279 9.92813 28.1268 10.0219C28.1256 10.1158 28.1057 10.2084 28.0682 10.2944C28.0307 10.3804 27.9764 10.458 27.9084 10.5227C27.8405 10.5874 27.7602 10.6378 27.6725 10.671C27.5847 10.7042 27.4912 10.7195 27.3975 10.716C27.3037 10.7125 27.2116 10.6903 27.1266 10.6506C27.0415 10.611 26.9653 10.5547 26.9023 10.4851C26.7835 10.3581 26.6356 10.2616 26.4715 10.204C26.3073 10.1463 26.1317 10.1292 25.9594 10.154C25.7872 10.1788 25.6235 10.2448 25.4823 10.3464C25.3411 10.448 25.2265 10.5823 25.1483 10.7377C25.0701 10.8931 25.0305 11.0651 25.0331 11.2391C25.0356 11.4131 25.0801 11.5839 25.1628 11.737C25.2455 11.8901 25.364 12.0209 25.5081 12.1184C25.6522 12.2159 25.8178 12.2771 25.9906 12.2969H25.9965L26.1512 12.3051H26.1887C26.8204 12.3802 27.3992 12.6946 27.8062 13.1835C28.2132 13.6724 28.4173 14.2987 28.3766 14.9336ZM32.907 10.1418H31.6004V16.5613C31.6004 16.7478 31.5263 16.9266 31.3945 17.0585C31.2626 17.1904 31.0837 17.2644 30.8973 17.2644C30.7108 17.2644 30.5319 17.1904 30.4001 17.0585C30.2682 16.9266 30.1941 16.7478 30.1941 16.5613V10.1418H28.8887C28.7022 10.1418 28.5233 10.0677 28.3915 9.93585C28.2596 9.80398 28.1855 9.62514 28.1855 9.43866C28.1855 9.25218 28.2596 9.07334 28.3915 8.94148C28.5233 8.80961 28.7022 8.73554 28.8887 8.73554H32.907C33.0935 8.73554 33.2724 8.80961 33.4042 8.94148C33.5361 9.07334 33.6102 9.25218 33.6102 9.43866C33.6102 9.62514 33.5361 9.80398 33.4042 9.93585C33.2724 10.0677 33.0935 10.1418 32.907 10.1418ZM38.0797 12.2969C38.2662 12.2969 38.445 12.3709 38.5769 12.5028C38.7087 12.6347 38.7828 12.8135 38.7828 13C38.7828 13.1865 38.7087 13.3653 38.5769 13.4972C38.445 13.629 38.2662 13.7031 38.0797 13.7031H35.4219V15.8582H38.0797C38.2662 15.8582 38.445 15.9323 38.5769 16.0641C38.7087 16.196 38.7828 16.3748 38.7828 16.5613C38.7828 16.7478 38.7087 16.9266 38.5769 17.0585C38.445 17.1904 38.2662 17.2644 38.0797 17.2644H34.9508C34.7021 17.2644 34.4637 17.1657 34.2879 16.9899C34.1121 16.814 34.0133 16.5756 34.0133 16.3269V9.67069C34.0133 9.42205 34.1121 9.18359 34.2879 9.00778C34.4637 8.83196 34.7021 8.73319 34.9508 8.73319H38.0797C38.2662 8.73319 38.445 8.80727 38.5769 8.93913C38.7087 9.07099 38.7828 9.24984 38.7828 9.43632C38.7828 9.6228 38.7087 9.80164 38.5769 9.9335C38.445 10.0654 38.2662 10.1394 38.0797 10.1394H35.4219V12.2969H38.0797ZM44.3645 16.1172C44.4822 16.2619 44.5377 16.4474 44.5187 16.633C44.4997 16.8186 44.4078 16.989 44.2631 17.1068C44.1184 17.2246 43.9329 17.2801 43.7473 17.2611C43.5617 17.2421 43.3912 17.1501 43.2734 17.0055L40.6953 13.8414V16.5578C40.6953 16.7443 40.6212 16.9231 40.4894 17.055C40.3575 17.1868 40.1787 17.2609 39.9922 17.2609C39.8057 17.2609 39.6269 17.1868 39.495 17.055C39.3631 16.9231 39.2891 16.7443 39.2891 16.5578V9.43866C39.2891 9.25218 39.3631 9.07334 39.495 8.94148C39.6269 8.80961 39.8057 8.73554 39.9922 8.73554H42.2797C42.5892 8.73554 42.8956 8.79649 43.1815 8.91492C43.4675 9.03336 43.7272 9.20694 43.9461 9.42578C44.1649 9.64461 44.3385 9.90441 44.4569 10.1903C44.5754 10.4762 44.6363 10.7827 44.6363 11.0922C44.6363 11.4017 44.5754 11.7081 44.4569 11.994C44.3385 12.2799 44.1649 12.5397 43.9461 12.7586C43.7272 12.9774 43.4675 13.151 43.1815 13.2694C42.8956 13.3879 42.5892 13.4488 42.2797 13.4488H42.1871L44.3645 16.1172ZM47.3656 17.2644C47.2266 17.2646 47.0906 17.2234 46.9749 17.1462C46.8592 17.0691 46.769 16.9593 46.7157 16.8308C46.6623 16.7024 46.6483 16.561 46.6754 16.4246C46.7024 16.2882 46.7693 16.1628 46.8676 16.0644L49.932 13L46.8676 9.93554C46.7376 9.80324 46.6651 9.62492 46.666 9.43943C46.6668 9.25394 46.7409 9.07631 46.8722 8.94522C47.0034 8.81414 47.1811 8.74022 47.3666 8.73958C47.5521 8.73894 47.7304 8.81161 47.8625 8.94178L51.4238 12.5031C51.5555 12.6349 51.6295 12.8137 51.6295 13C51.6295 13.1863 51.5555 13.365 51.4238 13.4969L47.8672 17.0582C47.8014 17.1241 47.7232 17.1762 47.6371 17.2116C47.551 17.247 47.4587 17.265 47.3656 17.2644ZM55.8641 13.4969L52.3027 17.0582C52.1694 17.1824 51.9931 17.25 51.811 17.2468C51.6288 17.2436 51.455 17.1698 51.3262 17.041C51.1974 16.9121 51.1236 16.7383 51.1204 16.5562C51.1172 16.374 51.1848 16.1977 51.309 16.0644L54.3723 13L51.309 9.93554C51.1848 9.80225 51.1172 9.62595 51.1204 9.4438C51.1236 9.26164 51.1974 9.08784 51.3262 8.95902C51.455 8.83019 51.6288 8.7564 51.811 8.75318C51.9931 8.74997 52.1694 8.81758 52.3027 8.94178L55.8641 12.5031C55.9957 12.6349 56.0697 12.8137 56.0697 13C56.0697 13.1863 55.9957 13.365 55.8641 13.4969Z" fill="white"/>
</svg>
