<svg width="40" height="40" viewBox="0 0 40 40" fill="none" xmlns="http://www.w3.org/2000/svg">
<path d="M7.46055 8.12125H32.4605C32.7526 8.12111 33.0443 8.13964 33.334 8.17672C33.2358 7.48748 32.999 6.82526 32.638 6.22999C32.277 5.63472 31.7991 5.11873 31.2333 4.71313C30.6674 4.30753 30.0253 4.02071 29.3456 3.86998C28.6659 3.71925 27.9628 3.70772 27.2785 3.83609L6.71836 7.34625H6.69492C5.40435 7.59304 4.25669 8.32322 3.48633 9.38766C4.64695 8.56213 6.03628 8.11941 7.46055 8.12125V8.12125Z" fill="#718096"/>
<path d="M32.4609 9.99976H7.46094C6.1353 10.0012 4.86437 10.5285 3.927 11.4658C2.98963 12.4032 2.46239 13.6741 2.46094 14.9998V29.9998C2.46239 31.3254 2.98963 32.5963 3.927 33.5337C4.86437 34.4711 6.1353 34.9983 7.46094 34.9997H32.4609C33.7866 34.9983 35.0575 34.4711 35.9949 33.5337C36.9322 32.5963 37.4595 31.3254 37.4609 29.9998V14.9998C37.4595 13.6741 36.9322 12.4032 35.9949 11.4658C35.0575 10.5285 33.7866 10.0012 32.4609 9.99976V9.99976ZM28.75 24.9998C28.2555 24.9998 27.7722 24.8531 27.3611 24.5784C26.9499 24.3037 26.6295 23.9133 26.4403 23.4565C26.2511 22.9996 26.2016 22.497 26.298 22.012C26.3945 21.5271 26.6326 21.0816 26.9822 20.732C27.3319 20.3824 27.7773 20.1443 28.2623 20.0478C28.7472 19.9513 29.2499 20.0008 29.7067 20.1901C30.1635 20.3793 30.554 20.6997 30.8287 21.1108C31.1034 21.5219 31.25 22.0053 31.25 22.4998C31.25 23.1628 30.9866 23.7987 30.5178 24.2675C30.0489 24.7364 29.413 24.9998 28.75 24.9998Z" fill="#718096"/>
<path d="M2.5 20.2692V12.4957C2.5 10.8028 3.4375 7.96448 6.69141 7.34963C9.45312 6.83166 12.1875 6.83167 12.1875 6.83167C12.1875 6.83167 13.9844 8.08166 12.5 8.08166C11.0156 8.08166 11.0547 9.99573 12.5 9.99573C13.9453 9.99573 12.5 11.8317 12.5 11.8317L6.67969 18.4332L2.5 20.2692Z" fill="#718096"/>
</svg>
