<svg width="74" height="107" viewBox="0 0 74 107" fill="none" xmlns="http://www.w3.org/2000/svg">
<path d="M33.4926 57.3491H26.394V101.111H33.4926V57.3491Z" fill="#FBFBFF" stroke="#251725" stroke-miterlimit="10" stroke-linecap="round" stroke-linejoin="round"/>
<path d="M26.394 63.3496C26.394 63.3496 30.7117 63.8619 33.4926 65.3987V58.7393H26.394V63.3496Z" fill="#251725" stroke="#251725" stroke-miterlimit="10" stroke-linecap="round" stroke-linejoin="round"/>
<path d="M32.98 58.959C48.9849 58.959 61.9595 45.9844 61.9595 29.9795C61.9595 13.9746 48.9849 1 32.98 1C16.975 1 4.00049 13.9746 4.00049 29.9795C4.00049 45.9844 16.975 58.959 32.98 58.959Z" fill="#251725" stroke="#251725" stroke-miterlimit="10" stroke-linecap="round" stroke-linejoin="round"/>
<path d="M29.9795 58.959C45.9844 58.959 58.959 45.9844 58.959 29.9795C58.959 13.9746 45.9844 1 29.9795 1C13.9746 1 1 13.9746 1 29.9795C1 45.9844 13.9746 58.959 29.9795 58.959Z" fill="#A499CE"/>
<path d="M29.9795 58.959C45.9844 58.959 58.959 45.9844 58.959 29.9795C58.959 13.9746 45.9844 1 29.9795 1C13.9746 1 1 13.9746 1 29.9795C1 45.9844 13.9746 58.959 29.9795 58.959Z" fill="url(#paint0_linear_2551_20186)"/>
<path d="M29.9795 58.959C45.9844 58.959 58.959 45.9844 58.959 29.9795C58.959 13.9746 45.9844 1 29.9795 1C13.9746 1 1 13.9746 1 29.9795C1 45.9844 13.9746 58.959 29.9795 58.959Z" stroke="#251725" stroke-miterlimit="10" stroke-linecap="round" stroke-linejoin="round"/>
<path d="M29.9798 52.7387C42.5494 52.7387 52.739 42.5491 52.739 29.9796C52.739 17.4101 42.5494 7.22046 29.9798 7.22046C17.4103 7.22046 7.2207 17.4101 7.2207 29.9796C7.2207 42.5491 17.4103 52.7387 29.9798 52.7387Z" fill="white"/>
<path d="M29.9798 52.7387C42.5494 52.7387 52.739 42.5491 52.739 29.9796C52.739 17.4101 42.5494 7.22046 29.9798 7.22046C17.4103 7.22046 7.2207 17.4101 7.2207 29.9796C7.2207 42.5491 17.4103 52.7387 29.9798 52.7387Z" fill="url(#paint1_linear_2551_20186)"/>
<path d="M29.9798 52.7387C42.5494 52.7387 52.739 42.5491 52.739 29.9796C52.739 17.4101 42.5494 7.22046 29.9798 7.22046C17.4103 7.22046 7.2207 17.4101 7.2207 29.9796C7.2207 42.5491 17.4103 52.7387 29.9798 52.7387Z" fill="url(#paint2_linear_2551_20186)"/>
<path d="M29.9798 52.7387C42.5494 52.7387 52.739 42.5491 52.739 29.9796C52.739 17.4101 42.5494 7.22046 29.9798 7.22046C17.4103 7.22046 7.2207 17.4101 7.2207 29.9796C7.2207 42.5491 17.4103 52.7387 29.9798 52.7387Z" stroke="#251725" stroke-miterlimit="10" stroke-linecap="round" stroke-linejoin="round"/>
<path d="M19.125 34.6741L28.125 43.1741L33.875 34.6741L36.75 30.4241L36.125 24.1741" stroke="#251725" stroke-width="2" stroke-linecap="round" stroke-linejoin="round"/>
<path d="M19.4477 37.3194C21.0066 37.3194 22.2704 36.0557 22.2704 34.4968C22.2704 32.9378 21.0066 31.6741 19.4477 31.6741C17.8888 31.6741 16.625 32.9378 16.625 34.4968C16.625 36.0557 17.8888 37.3194 19.4477 37.3194Z" fill="#A499CE"/>
<path d="M19.4477 37.3194C21.0066 37.3194 22.2704 36.0557 22.2704 34.4968C22.2704 32.9378 21.0066 31.6741 19.4477 31.6741C17.8888 31.6741 16.625 32.9378 16.625 34.4968C16.625 36.0557 17.8888 37.3194 19.4477 37.3194Z" fill="url(#paint3_linear_2551_20186)"/>
<path d="M19.4477 37.3194C21.0066 37.3194 22.2704 36.0557 22.2704 34.4968C22.2704 32.9378 21.0066 31.6741 19.4477 31.6741C17.8888 31.6741 16.625 32.9378 16.625 34.4968C16.625 36.0557 17.8888 37.3194 19.4477 37.3194Z" stroke="#251725" stroke-miterlimit="10" stroke-linecap="round" stroke-linejoin="round"/>
<path d="M27.625 36.6741L39.125 19.6741" stroke="#251725" stroke-width="2" stroke-linecap="round"/>
<path d="M39.4477 22.3194C41.0066 22.3194 42.2704 21.0557 42.2704 19.4968C42.2704 17.9378 41.0066 16.6741 39.4477 16.6741C37.8888 16.6741 36.625 17.9378 36.625 19.4968C36.625 21.0557 37.8888 22.3194 39.4477 22.3194Z" fill="#A499CE"/>
<path d="M39.4477 22.3194C41.0066 22.3194 42.2704 21.0557 42.2704 19.4968C42.2704 17.9378 41.0066 16.6741 39.4477 16.6741C37.8888 16.6741 36.625 17.9378 36.625 19.4968C36.625 21.0557 37.8888 22.3194 39.4477 22.3194Z" fill="url(#paint4_linear_2551_20186)"/>
<path d="M39.4477 22.3194C41.0066 22.3194 42.2704 21.0557 42.2704 19.4968C42.2704 17.9378 41.0066 16.6741 39.4477 16.6741C37.8888 16.6741 36.625 17.9378 36.625 19.4968C36.625 21.0557 37.8888 22.3194 39.4477 22.3194Z" stroke="#251725" stroke-miterlimit="10" stroke-linecap="round" stroke-linejoin="round"/>
<path d="M25.5156 105.355C25.5156 105.355 38.0295 106.892 43.9571 104.331C48.4211 102.355 50.3238 100.745 53.3242 101.111C56.3246 101.477 61.5204 102.867 69.5703 102.794" stroke="#251725" stroke-miterlimit="10" stroke-linecap="round" stroke-linejoin="round"/>
<path d="M39.3468 86.2552C39.3468 86.2552 38.615 83.6939 37.2977 82.9621C35.9073 82.1571 39.2736 89.7679 38.8345 95.0369C38.3223 100.379 35.9805 103.672 35.9805 103.672C35.9805 103.672 29.6138 100.233 29.3211 97.525C29.0283 94.8174 30.931 81.4985 31.1506 81.279C31.3701 81.0594 34.6632 78.5713 34.6632 78.5713C34.6632 78.5713 38.4686 75.9368 39.3468 86.2552Z" fill="#251725"/>
<path d="M31.5165 84.06H20.1004C18.0513 84.06 16.3682 82.3768 16.3682 80.3278C16.3682 78.2055 18.1245 76.5224 20.2467 76.5956L31.5897 77.0346C33.2729 77.1078 34.5901 78.4982 34.5901 80.1814V80.9132C34.6633 82.6695 33.2729 84.06 31.5165 84.06Z" fill="#FBFBFF" stroke="#251725" stroke-miterlimit="10" stroke-linecap="round" stroke-linejoin="round"/>
<path d="M32.5409 91.0851L21.1979 91.5242C19.0757 91.5974 17.3193 89.9142 17.3193 87.792C17.3193 85.743 19.0025 84.0598 21.0515 84.0598H32.4677C34.224 84.0598 35.6145 85.4502 35.6145 87.2066V87.9384C35.5413 89.6215 34.224 91.012 32.5409 91.0851Z" fill="#FBFBFF" stroke="#251725" stroke-miterlimit="10" stroke-linecap="round" stroke-linejoin="round"/>
<path d="M34.4436 98.0375L23.1006 98.9888C20.9784 99.1352 19.0757 97.452 19.0757 95.3298C19.0757 93.3539 20.6125 91.744 22.6615 91.5976L34.0777 91.1585C35.834 91.0853 37.3708 92.4758 37.3708 94.3053V95.0371C37.2976 96.5739 36.0536 97.8911 34.4436 98.0375Z" fill="#FBFBFF" stroke="#251725" stroke-miterlimit="10" stroke-linecap="round" stroke-linejoin="round"/>
<path d="M33.7118 104.916L23.9788 105.429C22.3688 105.502 20.9052 104.258 20.832 102.575V102.135C20.7588 100.452 22.0761 98.9887 23.7592 98.9887L33.4922 98.9155C35.1022 98.9155 36.4195 100.16 36.4926 101.77C36.5658 103.453 35.3217 104.843 33.7118 104.916Z" fill="#FBFBFF" stroke="#251725" stroke-miterlimit="10" stroke-linecap="round" stroke-linejoin="round"/>
<path d="M68.1063 76.5955C68.1063 76.5955 53.5434 80.1814 50.1039 78.5714C46.6644 76.9614 46.5912 72.3511 41.1027 72.3511C34.2237 72.3511 28.9547 73.6683 28.7352 75.9369C28.5156 78.2055 30.0524 79.0105 34.3701 79.1569C38.6877 79.3032 37.8096 80.2546 39.5659 86.914C41.2491 93.2807 48.2012 94.1589 51.2016 92.988" fill="#FBFBFF"/>
<path d="M68.1063 76.5955C68.1063 76.5955 53.5434 80.1814 50.1039 78.5714C46.6644 76.9614 46.5912 72.3511 41.1027 72.3511C34.2237 72.3511 28.9547 73.6683 28.7352 75.9369C28.5156 78.2055 30.0524 79.0105 34.3701 79.1569C38.6877 79.3032 37.8096 80.2546 39.5659 86.914C41.2491 93.2807 48.2012 94.1589 51.2016 92.988" stroke="#251725" stroke-miterlimit="10" stroke-linecap="round" stroke-linejoin="round"/>
<path d="M61.0083 75.571C61.0083 75.571 61.2278 96.9397 61.0083 104.404L72.7904 105.795V74.1074L61.0083 75.571Z" fill="#A499CE"/>
<path d="M61.0083 75.571C61.0083 75.571 61.2278 96.9397 61.0083 104.404L72.7904 105.795V74.1074L61.0083 75.571Z" fill="url(#paint5_linear_2551_20186)"/>
<path d="M61.0083 75.571C61.0083 75.571 61.2278 96.9397 61.0083 104.404L72.7904 105.795V74.1074L61.0083 75.571Z" stroke="#251725" stroke-miterlimit="10" stroke-linecap="round" stroke-linejoin="round"/>
<path d="M61.008 85.5967C61.008 85.5967 60.6421 96.281 57.7148 101.843L61.008 102.282V85.5967Z" fill="#251725"/>
<defs>
<linearGradient id="paint0_linear_2551_20186" x1="14.1829" y1="-14.7966" x2="80.0393" y2="51.0598" gradientUnits="userSpaceOnUse">
<stop offset="0.1" stop-color="#F76DFC"/>
<stop offset="0.7" stop-color="#1288AA"/>
</linearGradient>
<linearGradient id="paint1_linear_2551_20186" x1="79.8057" y1="65.1132" x2="12.1844" y2="7.1442" gradientUnits="userSpaceOnUse">
<stop offset="0.25" stop-color="#DF87F1"/>
<stop offset="0.6" stop-color="#FBFBFF"/>
</linearGradient>
<linearGradient id="paint2_linear_2551_20186" x1="79.8057" y1="65.1132" x2="12.1844" y2="7.1442" gradientUnits="userSpaceOnUse">
<stop offset="0.2" stop-color="#DF87F1"/>
<stop offset="0.7" stop-color="#FBFBFF"/>
</linearGradient>
<linearGradient id="paint3_linear_2551_20186" x1="17.909" y1="30.1354" x2="25.642" y2="37.8684" gradientUnits="userSpaceOnUse">
<stop offset="0.15" stop-color="#10AD74"/>
<stop offset="0.75" stop-color="#1288AA"/>
</linearGradient>
<linearGradient id="paint4_linear_2551_20186" x1="37.909" y1="15.1354" x2="45.642" y2="22.8684" gradientUnits="userSpaceOnUse">
<stop offset="0.15" stop-color="#10AD74"/>
<stop offset="0.75" stop-color="#1288AA"/>
</linearGradient>
<linearGradient id="paint5_linear_2551_20186" x1="63.6882" y1="65.4711" x2="87.211" y2="74.2175" gradientUnits="userSpaceOnUse">
<stop offset="0.1" stop-color="#F76DFC"/>
<stop offset="0.7" stop-color="#1288AA"/>
</linearGradient>
</defs>
</svg>
