<svg width="94" height="92" viewBox="0 0 94 92" fill="none" xmlns="http://www.w3.org/2000/svg">
<path d="M85.6697 82.1572H14.6115C11.8306 82.1572 9.56201 79.8886 9.56201 77.1077V6.04945C9.56201 3.26859 11.8306 1 14.6115 1H85.6697C88.4506 1 90.7192 3.26859 90.7192 6.04945V77.1077C90.7192 79.8886 88.4506 82.1572 85.6697 82.1572Z" fill="#251725" stroke="#251725" stroke-miterlimit="10" stroke-linecap="round" stroke-linejoin="round"/>
<path d="M15.9287 82.1572L16.8069 85.9626C16.9532 86.6212 17.5387 87.0603 18.1241 87.0603H26.4667C27.1253 87.0603 27.7108 86.6212 27.784 85.9626L28.5889 82.1572H15.9287Z" fill="#251725" stroke="#251725" stroke-miterlimit="10" stroke-linecap="round" stroke-linejoin="round"/>
<path d="M71.6191 82.1572L72.4973 85.9626C72.6437 86.6212 73.2291 87.0603 73.8146 87.0603H82.1571C82.8158 87.0603 83.4012 86.6212 83.4744 85.9626L84.2794 82.1572H71.6191Z" fill="#251725" stroke="#251725" stroke-miterlimit="10" stroke-linecap="round" stroke-linejoin="round"/>
<path d="M77.0346 82.1572H6.04946C3.2686 82.1572 1 79.8886 1 77.1077V6.04945C1 3.26859 3.2686 1 6.04946 1H77.1077C79.8886 1 82.1572 3.26859 82.1572 6.04945V77.1077C82.1572 79.8886 79.8154 82.1572 77.0346 82.1572Z" fill="url(#paint0_linear_2551_20239)" stroke="#251725" stroke-miterlimit="10" stroke-linecap="round" stroke-linejoin="round"/>
<path d="M12.7087 71.8386C11.9037 71.8386 11.2451 71.18 11.2451 70.375V12.782C11.2451 11.977 11.9037 11.3184 12.7087 11.3184H70.375C71.18 11.3184 71.8386 11.977 71.8386 12.782V70.4482C71.8386 71.2532 71.18 71.9118 70.375 71.9118H12.7087V71.8386Z" fill="url(#paint1_linear_2551_20239)" stroke="#251725" stroke-miterlimit="10" stroke-linecap="round" stroke-linejoin="round"/>
<path d="M11.5377 33.7117C10.3668 33.7117 9.34229 32.7604 9.34229 31.5163V23.8324C9.34229 22.6615 10.2936 21.637 11.5377 21.637C12.7086 21.637 13.7331 22.5883 13.7331 23.8324V31.5163C13.7331 32.6872 12.7818 33.7117 11.5377 33.7117Z" fill="#251725" stroke="#251725" stroke-miterlimit="10" stroke-linecap="round" stroke-linejoin="round"/>
<path d="M11.5377 61.5203C10.3668 61.5203 9.34229 60.569 9.34229 59.3249V51.641C9.34229 50.4701 10.2936 49.4456 11.5377 49.4456C12.7086 49.4456 13.7331 50.3969 13.7331 51.641V59.3249C13.7331 60.569 12.7818 61.5203 11.5377 61.5203Z" fill="#251725" stroke="#251725" stroke-miterlimit="10" stroke-linecap="round" stroke-linejoin="round"/>
<path d="M7.3667 82.1572L8.24487 85.9626C8.39123 86.6212 8.97667 87.0603 9.56211 87.0603H17.9047C18.5633 87.0603 19.1488 86.6212 19.2219 85.9626L20.0269 82.1572H7.3667Z" fill="white" stroke="#251725" stroke-miterlimit="10" stroke-linecap="round" stroke-linejoin="round"/>
<path d="M62.9839 82.1572L63.8621 85.9626C64.0084 86.6212 64.5939 87.0603 65.1793 87.0603H73.5219C74.1805 87.0603 74.7659 86.6212 74.8391 85.9626L75.6441 82.1572H62.9839Z" fill="white" stroke="#251725" stroke-miterlimit="10" stroke-linecap="round" stroke-linejoin="round"/>
<path d="M41.542 60.7154C52.0907 60.7154 60.6421 52.164 60.6421 41.6153C60.6421 31.0665 52.0907 22.5151 41.542 22.5151C30.9933 22.5151 22.4419 31.0665 22.4419 41.6153C22.4419 52.164 30.9933 60.7154 41.542 60.7154Z" fill="#251725" stroke="#251725" stroke-miterlimit="10" stroke-linecap="round" stroke-linejoin="round"/>
<path d="M30.6385 49.5918L28.6626 51.5677C29.1017 52.1531 29.6139 52.7386 30.1262 53.2508L32.1021 51.2749C31.5166 50.7627 31.0776 50.1772 30.6385 49.5918Z" fill="white"/>
<path d="M51.5677 28.6621L49.5918 30.638C50.1772 31.0771 50.7627 31.5893 51.275 32.1016L53.2508 30.1257C52.6654 29.6135 52.1531 29.1012 51.5677 28.6621Z" fill="white"/>
<path d="M29.6137 47.9818C28.6624 46.2986 28.0769 44.3227 28.0038 42.2737L25.5156 44.7618C25.8815 46.6645 26.6133 48.4208 27.5647 50.0308L29.6137 47.9818Z" fill="white"/>
<path d="M50.0311 27.6377C48.4211 26.6863 46.6648 25.9545 44.7621 25.5886L42.2739 28.0768C44.323 28.2231 46.2257 28.7354 47.982 29.6867L50.0311 27.6377Z" fill="white"/>
<path d="M41.542 52.6655C47.6448 52.6655 52.5922 47.7181 52.5922 41.6152C52.5922 35.5123 47.6448 30.5649 41.542 30.5649C35.4391 30.5649 30.4917 35.5123 30.4917 41.6152C30.4917 47.7181 35.4391 52.6655 41.542 52.6655Z" fill="#EBEDFD"/>
<path d="M41.542 52.6655C47.6448 52.6655 52.5922 47.7181 52.5922 41.6152C52.5922 35.5123 47.6448 30.5649 41.542 30.5649C35.4391 30.5649 30.4917 35.5123 30.4917 41.6152C30.4917 47.7181 35.4391 52.6655 41.542 52.6655Z" fill="url(#paint2_linear_2551_20239)"/>
<path d="M41.542 52.6655C47.6448 52.6655 52.5922 47.7181 52.5922 41.6152C52.5922 35.5123 47.6448 30.5649 41.542 30.5649C35.4391 30.5649 30.4917 35.5123 30.4917 41.6152C30.4917 47.7181 35.4391 52.6655 41.542 52.6655Z" fill="url(#paint3_linear_2551_20239)"/>
<path d="M41.542 52.6655C47.6448 52.6655 52.5922 47.7181 52.5922 41.6152C52.5922 35.5123 47.6448 30.5649 41.542 30.5649C35.4391 30.5649 30.4917 35.5123 30.4917 41.6152C30.4917 47.7181 35.4391 52.6655 41.542 52.6655Z" stroke="#251725" stroke-miterlimit="10" stroke-linecap="round" stroke-linejoin="round"/>
<path d="M41.5421 46.1525C44.0479 46.1525 46.0793 44.1211 46.0793 41.6153C46.0793 39.1095 44.0479 37.0781 41.5421 37.0781C39.0363 37.0781 37.0049 39.1095 37.0049 41.6153C37.0049 44.1211 39.0363 46.1525 41.5421 46.1525Z" fill="#251725" stroke="#251725" stroke-miterlimit="10" stroke-linecap="round" stroke-linejoin="round"/>
<path d="M41.542 25.8083C40.5906 25.8083 39.7856 25.0033 39.7856 24.052V21.7102C39.7856 20.7588 40.5906 19.9539 41.542 19.9539C42.4933 19.9539 43.2983 20.7588 43.2983 21.7102V24.052C43.2983 25.0033 42.4933 25.8083 41.542 25.8083Z" fill="white" stroke="#251725" stroke-miterlimit="10" stroke-linecap="round" stroke-linejoin="round"/>
<path d="M41.542 63.2036C40.5906 63.2036 39.7856 62.3986 39.7856 61.4472V59.1055C39.7856 58.1541 40.5906 57.3491 41.542 57.3491C42.4933 57.3491 43.2983 58.1541 43.2983 59.1055V61.4472C43.2983 62.4718 42.4933 63.2036 41.542 63.2036Z" fill="white" stroke="#251725" stroke-miterlimit="10" stroke-linecap="round" stroke-linejoin="round"/>
<path d="M25.7348 41.6152C25.7348 42.5666 24.9298 43.3716 23.9785 43.3716H21.6367C20.6854 43.3716 19.8804 42.5666 19.8804 41.6152C19.8804 40.6639 20.6854 39.8589 21.6367 39.8589H23.9785C24.9298 39.8589 25.7348 40.6639 25.7348 41.6152Z" fill="white" stroke="#251725" stroke-miterlimit="10" stroke-linecap="round" stroke-linejoin="round"/>
<path d="M63.2036 41.6152C63.2036 42.5666 62.3986 43.3716 61.4472 43.3716H59.1054C58.1541 43.3716 57.3491 42.5666 57.3491 41.6152C57.3491 40.6639 58.1541 39.8589 59.1054 39.8589H61.4472C62.3986 39.8589 63.2036 40.6639 63.2036 41.6152Z" fill="white" stroke="#251725" stroke-miterlimit="10" stroke-linecap="round" stroke-linejoin="round"/>
<path d="M52.7391 30.4187C52.0805 29.76 52.0805 28.6623 52.7391 27.9305L54.4222 26.2474C55.0809 25.5888 56.1786 25.5888 56.9104 26.2474C57.569 26.906 57.569 28.0037 56.9104 28.7355L55.2272 30.4187C54.4954 31.0773 53.3977 31.0773 52.7391 30.4187Z" fill="white" stroke="#251725" stroke-miterlimit="10" stroke-linecap="round" stroke-linejoin="round"/>
<path d="M26.2474 56.9101C25.5888 56.2515 25.5888 55.1538 26.2474 54.422L27.9305 52.7388C28.5892 52.0802 29.6869 52.0802 30.4187 52.7388C31.0773 53.3975 31.0773 54.4952 30.4187 55.227L28.7355 56.9101C28.0037 57.5688 26.906 57.5688 26.2474 56.9101Z" fill="white" stroke="#251725" stroke-miterlimit="10" stroke-linecap="round" stroke-linejoin="round"/>
<path d="M30.3454 30.4187C29.6868 31.0773 28.5891 31.0773 27.8573 30.4187L26.1741 28.7355C25.5155 28.0769 25.5155 26.9792 26.1741 26.2474C26.8328 25.5888 27.9305 25.5888 28.6623 26.2474L30.3454 27.9305C31.0041 28.6623 31.0041 29.76 30.3454 30.4187Z" fill="white" stroke="#251725" stroke-miterlimit="10" stroke-linecap="round" stroke-linejoin="round"/>
<path d="M56.8371 56.9101C56.1785 57.5688 55.0808 57.5688 54.349 56.9101L52.6658 55.227C52.0072 54.5684 52.0072 53.4706 52.6658 52.7388C53.3245 52.0802 54.4222 52.0802 55.154 52.7388L56.8371 54.422C57.4958 55.0806 57.4958 56.2515 56.8371 56.9101Z" fill="white" stroke="#251725" stroke-miterlimit="10" stroke-linecap="round" stroke-linejoin="round"/>
<path d="M7.95214 84.6454H22.8078V82.1572H7.3667L7.95214 84.6454Z" fill="#251725" stroke="#251725" stroke-miterlimit="10" stroke-linecap="round" stroke-linejoin="round"/>
<path d="M63.5693 84.6454H78.425V82.1572H62.9839L63.5693 84.6454Z" fill="#251725" stroke="#251725" stroke-miterlimit="10" stroke-linecap="round" stroke-linejoin="round"/>
<path d="M10.5865 33.7117C9.41564 33.7117 8.39111 32.7604 8.39111 31.5163V23.8324C8.39111 22.6615 9.34246 21.637 10.5865 21.637C11.7574 21.637 12.7819 22.5883 12.7819 23.8324V31.5163C12.7088 32.6872 11.7574 33.7117 10.5865 33.7117Z" fill="white" stroke="#251725" stroke-miterlimit="10" stroke-linecap="round" stroke-linejoin="round"/>
<path d="M10.5865 61.5203C9.41564 61.5203 8.39111 60.569 8.39111 59.3249V51.641C8.39111 50.4701 9.34246 49.4456 10.5865 49.4456C11.7574 49.4456 12.7819 50.3969 12.7819 51.641V59.3249C12.7088 60.569 11.7574 61.5203 10.5865 61.5203Z" fill="white" stroke="#251725" stroke-miterlimit="10" stroke-linecap="round" stroke-linejoin="round"/>
<path d="M74.1074 91.1584C84.3732 91.1584 92.6952 82.8363 92.6952 72.5705C92.6952 62.3047 84.3732 53.9827 74.1074 53.9827C63.8416 53.9827 55.5195 62.3047 55.5195 72.5705C55.5195 82.8363 63.8416 91.1584 74.1074 91.1584Z" fill="#251725" stroke="#251725" stroke-miterlimit="10" stroke-linecap="round" stroke-linejoin="round"/>
<path d="M70.8144 91.1584C81.0802 91.1584 89.4023 82.8363 89.4023 72.5705C89.4023 62.3047 81.0802 53.9827 70.8144 53.9827C60.5486 53.9827 52.2266 62.3047 52.2266 72.5705C52.2266 82.8363 60.5486 91.1584 70.8144 91.1584Z" fill="#DF87F1"/>
<path d="M70.8144 91.1584C81.0802 91.1584 89.4023 82.8363 89.4023 72.5705C89.4023 62.3047 81.0802 53.9827 70.8144 53.9827C60.5486 53.9827 52.2266 62.3047 52.2266 72.5705C52.2266 82.8363 60.5486 91.1584 70.8144 91.1584Z" fill="url(#paint4_linear_2551_20239)"/>
<path d="M70.8144 91.1584C81.0802 91.1584 89.4023 82.8363 89.4023 72.5705C89.4023 62.3047 81.0802 53.9827 70.8144 53.9827C60.5486 53.9827 52.2266 62.3047 52.2266 72.5705C52.2266 82.8363 60.5486 91.1584 70.8144 91.1584Z" stroke="#251725" stroke-miterlimit="10" stroke-linecap="round" stroke-linejoin="round"/>
<path d="M70.8141 86.9138C78.7357 86.9138 85.1575 80.4921 85.1575 72.5704C85.1575 64.6488 78.7357 58.2271 70.8141 58.2271C62.8925 58.2271 56.4707 64.6488 56.4707 72.5704C56.4707 80.4921 62.8925 86.9138 70.8141 86.9138Z" fill="#251725"/>
<path d="M70.8141 86.9138C78.7357 86.9138 85.1575 80.4921 85.1575 72.5704C85.1575 64.6488 78.7357 58.2271 70.8141 58.2271C62.8925 58.2271 56.4707 64.6488 56.4707 72.5704C56.4707 80.4921 62.8925 86.9138 70.8141 86.9138Z" fill="url(#paint5_linear_2551_20239)"/>
<path d="M70.8141 86.9138C78.7357 86.9138 85.1575 80.4921 85.1575 72.5704C85.1575 64.6488 78.7357 58.2271 70.8141 58.2271C62.8925 58.2271 56.4707 64.6488 56.4707 72.5704C56.4707 80.4921 62.8925 86.9138 70.8141 86.9138Z" stroke="#251725" stroke-miterlimit="10" stroke-linecap="round" stroke-linejoin="round"/>
<path d="M76.8886 60.8616L71.0342 66.716C72.1319 67.9601 73.5955 69.131 73.8882 70.3019L80.6208 63.5693C79.4499 62.4715 78.2059 61.5202 76.8886 60.8616Z" fill="white"/>
<path d="M66.4968 71.2532L59.1787 78.5712C59.9105 79.9617 60.8619 81.2057 61.9596 82.2303L66.4968 77.6931V71.2532Z" fill="white"/>
<path d="M66.497 79.4496V79.5228V79.4496L62.9111 83.0354C63.4234 83.4745 64.0088 83.8404 64.6675 84.1331L69.2047 79.5959C68.546 79.3764 67.8874 79.0837 67.302 78.7178L66.497 79.4496Z" fill="white"/>
<path d="M81.3524 64.5938L73.5952 72.3509C74.0343 72.8631 74.4734 73.3754 74.8393 73.9609L82.5232 66.2769C82.0842 65.6915 81.7183 65.106 81.3524 64.5938Z" fill="white"/>
<path d="M71.1799 82.2305C70.9604 82.2305 70.814 82.0842 70.814 81.8646V80.5474H69.57V81.8646C69.57 82.0842 69.4236 82.2305 69.2041 82.2305H67.4477C67.2282 82.2305 67.0818 82.0842 67.0818 81.8646V80.5474H64.8864C64.6669 80.5474 64.5205 80.401 64.5205 80.1815V65.2527C64.5205 65.0331 64.6669 64.8868 64.8864 64.8868H67.0818V63.2768C67.0818 63.0572 67.2282 62.9109 67.4477 62.9109H69.2041C69.4236 62.9109 69.57 63.0572 69.57 63.2768V64.8868H70.814V63.2768C70.814 63.0572 70.9604 62.9109 71.1799 62.9109H72.9363C73.1558 62.9109 73.3022 63.0572 73.3022 63.2768V65.0331C74.1803 65.1795 74.9121 65.5454 75.4244 65.9845C76.3758 66.7163 76.8148 67.7408 76.8148 69.1312C76.8148 70.0826 76.5221 70.9607 76.0099 71.6194C75.7171 71.9853 75.3512 72.3512 74.9121 72.5707C75.4244 72.8634 75.9367 73.2293 76.3026 73.6684C76.888 74.4002 77.1807 75.2052 77.1807 76.2297C77.1807 77.6202 76.7417 78.7179 75.7903 79.5229C75.1317 80.0351 74.3267 80.401 73.3022 80.5474V82.011C73.3022 82.2306 73.1558 82.3769 72.9363 82.3769H71.1799V82.2305ZM71.1068 76.8152C72.5704 76.8152 72.7167 76.1566 72.7167 75.4979C72.7167 75.0589 72.5704 74.7661 72.3508 74.5466C72.0581 74.327 71.619 74.1807 71.1068 74.1807H68.9113V76.8152H71.1068ZM70.8872 70.9607C72.2045 70.9607 72.424 70.3021 72.424 69.7167C72.424 69.1312 72.2776 68.4726 70.8872 68.4726H68.9113V70.9607H70.8872Z" fill="#10AD74"/>
<path d="M71.1799 82.2305C70.9604 82.2305 70.814 82.0842 70.814 81.8646V80.5474H69.57V81.8646C69.57 82.0842 69.4236 82.2305 69.2041 82.2305H67.4477C67.2282 82.2305 67.0818 82.0842 67.0818 81.8646V80.5474H64.8864C64.6669 80.5474 64.5205 80.401 64.5205 80.1815V65.2527C64.5205 65.0331 64.6669 64.8868 64.8864 64.8868H67.0818V63.2768C67.0818 63.0572 67.2282 62.9109 67.4477 62.9109H69.2041C69.4236 62.9109 69.57 63.0572 69.57 63.2768V64.8868H70.814V63.2768C70.814 63.0572 70.9604 62.9109 71.1799 62.9109H72.9363C73.1558 62.9109 73.3022 63.0572 73.3022 63.2768V65.0331C74.1803 65.1795 74.9121 65.5454 75.4244 65.9845C76.3758 66.7163 76.8148 67.7408 76.8148 69.1312C76.8148 70.0826 76.5221 70.9607 76.0099 71.6194C75.7171 71.9853 75.3512 72.3512 74.9121 72.5707C75.4244 72.8634 75.9367 73.2293 76.3026 73.6684C76.888 74.4002 77.1807 75.2052 77.1807 76.2297C77.1807 77.6202 76.7417 78.7179 75.7903 79.5229C75.1317 80.0351 74.3267 80.401 73.3022 80.5474V82.011C73.3022 82.2306 73.1558 82.3769 72.9363 82.3769H71.1799V82.2305ZM71.1068 76.8152C72.5704 76.8152 72.7167 76.1566 72.7167 75.4979C72.7167 75.0589 72.5704 74.7661 72.3508 74.5466C72.0581 74.327 71.619 74.1807 71.1068 74.1807H68.9113V76.8152H71.1068ZM70.8872 70.9607C72.2045 70.9607 72.424 70.3021 72.424 69.7167C72.424 69.1312 72.2776 68.4726 70.8872 68.4726H68.9113V70.9607H70.8872Z" fill="url(#paint6_linear_2551_20239)"/>
<path d="M72.9365 63.2035V65.3257C73.8878 65.4721 74.6196 65.7648 75.205 66.2039C76.01 66.8625 76.4491 67.8139 76.4491 69.0579C76.4491 69.9361 76.2296 70.7411 75.7173 71.3265C75.205 71.912 74.6196 72.3511 73.8146 72.4974C74.6928 72.717 75.4246 73.156 75.9368 73.8147C76.4491 74.4733 76.7418 75.2783 76.7418 76.0833C76.7418 77.4005 76.3028 78.3519 75.4978 79.0837C74.8391 79.5959 73.961 79.9618 72.9365 80.1082V81.8645H71.1801V80.1814H69.2042V81.8645H67.4479V80.1814H64.8866V65.2525H67.4479V63.2767H69.2042V65.2525H71.1801V63.2767H72.9365V63.2035ZM68.5456 71.3265H70.8874C72.1315 71.3265 72.7901 70.8143 72.7901 69.7166C72.7901 68.6188 72.1315 68.1066 70.8874 68.1066H68.5456V71.3265ZM68.5456 77.181H71.1069C72.4242 77.181 73.0828 76.5955 73.0828 75.571C73.0828 75.0587 72.9365 74.6196 72.5705 74.3269C72.2046 74.0342 71.6924 73.8878 71.1069 73.8878H68.5456V77.181ZM72.9365 62.4717H71.1801C70.741 62.4717 70.4483 62.7644 70.4483 63.2035V64.4476H69.936V63.2035C69.936 62.7644 69.6433 62.4717 69.2042 62.4717H67.4479C67.0088 62.4717 66.7161 62.7644 66.7161 63.2035V64.4476H64.8866C64.4475 64.4476 64.1548 64.7403 64.1548 65.1794V80.1082C64.1548 80.5473 64.4475 80.84 64.8866 80.84H66.7161V81.7913C66.7161 82.2304 67.0088 82.5231 67.4479 82.5231H69.2042C69.6433 82.5231 69.936 82.2304 69.936 81.7913V80.84H70.4483V81.7913C70.4483 82.2304 70.741 82.5231 71.1801 82.5231H72.9365C73.3755 82.5231 73.6683 82.2304 73.6683 81.7913V80.6204C74.6196 80.4009 75.3514 80.035 76.01 79.5227C77.0346 78.6446 77.5468 77.4737 77.5468 75.9369C77.5468 74.9124 77.2541 73.961 76.5955 73.156C76.3028 72.7901 76.01 72.4974 75.6441 72.2779C75.8637 72.0583 76.1564 71.8388 76.3027 71.6192C76.8882 70.8874 77.1809 70.0093 77.1809 68.9116C77.1809 67.448 76.6687 66.3503 75.6441 65.5453C75.1319 65.1062 74.4001 64.8135 73.6683 64.5939V63.1303C73.6683 62.8376 73.3024 62.4717 72.9365 62.4717ZM69.2774 68.8384H70.8874C72.0583 68.8384 72.0583 69.3506 72.0583 69.7166C72.0583 70.1556 71.9851 70.5947 70.8874 70.5947H69.2774V68.8384ZM69.2774 74.6196H71.1069C71.546 74.6196 71.9119 74.6928 72.1315 74.9124C72.2778 74.9855 72.4242 75.2051 72.4242 75.6442C72.4242 76.0101 72.4242 76.5223 71.1801 76.5223H69.3506V74.6196H69.2774Z" fill="#251725"/>
<path d="M83.4746 19.6611V24.5642L89.5486 18.4903V13.5872L83.4746 19.6611Z" fill="white"/>
<path d="M83.4746 26.3206V29.1014L89.5486 23.0274V20.2466L83.4746 26.3206Z" fill="white"/>
<path d="M52.2265 73.9611H21.1979C20.027 73.9611 19.0757 73.0098 19.0757 71.8389H52.2265V73.9611Z" fill="#251725"/>
<path d="M73.3025 3.12223H44.3962C43.2253 3.12223 42.2739 2.17089 42.2739 1H75.4247C75.4247 2.17089 74.4734 3.12223 73.3025 3.12223Z" fill="#251725"/>
<defs>
<linearGradient id="paint0_linear_2551_20239" x1="91.5273" y1="82.1572" x2="10.0273" y2="0.657202" gradientUnits="userSpaceOnUse">
<stop stop-color="#DF87F1"/>
<stop offset="1" stop-color="#FBFBFF"/>
</linearGradient>
<linearGradient id="paint1_linear_2551_20239" x1="25.0272" y1="-5.19627" x2="108.027" y2="77.8037" gradientUnits="userSpaceOnUse">
<stop offset="0.15" stop-color="#10AD74"/>
<stop offset="0.75" stop-color="#1288AA"/>
</linearGradient>
<linearGradient id="paint2_linear_2551_20239" x1="55.1439" y1="52.6655" x2="32.95" y2="30.4716" gradientUnits="userSpaceOnUse">
<stop stop-color="#DF87F1"/>
<stop offset="1" stop-color="#FBFBFF"/>
</linearGradient>
<linearGradient id="paint3_linear_2551_20239" x1="65.7339" y1="58.6736" x2="32.9017" y2="30.5279" gradientUnits="userSpaceOnUse">
<stop offset="0.15" stop-color="#DF87F1"/>
<stop offset="0.6" stop-color="#FBFBFF"/>
</linearGradient>
<linearGradient id="paint4_linear_2551_20239" x1="93.6945" y1="91.1584" x2="56.3617" y2="53.8256" gradientUnits="userSpaceOnUse">
<stop stop-color="#DF87F1"/>
<stop offset="1" stop-color="#FBFBFF"/>
</linearGradient>
<linearGradient id="paint5_linear_2551_20239" x1="62.9956" y1="50.4085" x2="102.29" y2="89.7032" gradientUnits="userSpaceOnUse">
<stop offset="0.15" stop-color="#10AD74"/>
<stop offset="0.75" stop-color="#1288AA"/>
</linearGradient>
<linearGradient id="paint6_linear_2551_20239" x1="78.6424" y1="82.3769" x2="60.7734" y2="70.7553" gradientUnits="userSpaceOnUse">
<stop stop-color="#DF87F1"/>
<stop offset="1" stop-color="#FBFBFF"/>
</linearGradient>
</defs>
</svg>
