<svg width="101" height="108" viewBox="0 0 101 108" fill="none" xmlns="http://www.w3.org/2000/svg">
<path d="M49.4451 94.8905C71.6338 94.8905 89.6213 76.9031 89.6213 54.7144C89.6213 32.5258 71.6338 14.5383 49.4451 14.5383C27.2565 14.5383 9.26904 32.5258 9.26904 54.7144C9.26904 76.9031 27.2565 94.8905 49.4451 94.8905Z" fill="#251725" stroke="#251725" stroke-width="0.731805" stroke-miterlimit="10" stroke-linecap="round" stroke-linejoin="round"/>
<path d="M49.4451 91.4511C71.6338 91.4511 89.6213 73.4636 89.6213 51.275C89.6213 29.0863 71.6338 11.0989 49.4451 11.0989C27.2565 11.0989 9.26904 29.0863 9.26904 51.275C9.26904 73.4636 27.2565 91.4511 49.4451 91.4511Z" fill="#A499CE"/>
<path d="M49.4451 91.4511C71.6338 91.4511 89.6213 73.4636 89.6213 51.275C89.6213 29.0863 71.6338 11.0989 49.4451 11.0989C27.2565 11.0989 9.26904 29.0863 9.26904 51.275C9.26904 73.4636 27.2565 91.4511 49.4451 91.4511Z" fill="url(#paint0_linear_2553_20379)"/>
<path d="M49.4451 91.4511C71.6338 91.4511 89.6213 73.4636 89.6213 51.275C89.6213 29.0863 71.6338 11.0989 49.4451 11.0989C27.2565 11.0989 9.26904 29.0863 9.26904 51.275C9.26904 73.4636 27.2565 91.4511 49.4451 91.4511Z" stroke="#251725" stroke-miterlimit="10" stroke-linecap="round" stroke-linejoin="round"/>
<path d="M49.4454 84.7185C67.9158 84.7185 82.8889 69.7454 82.8889 51.275C82.8889 32.8047 67.9158 17.8315 49.4454 17.8315C30.9751 17.8315 16.002 32.8047 16.002 51.275C16.002 69.7454 30.9751 84.7185 49.4454 84.7185Z" fill="url(#paint1_linear_2553_20379)"/>
<path d="M49.4454 84.7185C67.9158 84.7185 82.8889 69.7454 82.8889 51.275C82.8889 32.8047 67.9158 17.8315 49.4454 17.8315C30.9751 17.8315 16.002 32.8047 16.002 51.275C16.002 69.7454 30.9751 84.7185 49.4454 84.7185Z" fill="url(#paint2_linear_2553_20379)"/>
<path d="M49.4454 84.7185C67.9158 84.7185 82.8889 69.7454 82.8889 51.275C82.8889 32.8047 67.9158 17.8315 49.4454 17.8315C30.9751 17.8315 16.002 32.8047 16.002 51.275C16.002 69.7454 30.9751 84.7185 49.4454 84.7185Z" stroke="#251725" stroke-miterlimit="10" stroke-linecap="round" stroke-linejoin="round"/>
<path d="M49.4451 51.2749V29.833" stroke="#251725" stroke-width="2" stroke-miterlimit="10" stroke-linecap="round" stroke-linejoin="round"/>
<path d="M53.47 33.8579L49.4451 28.3694L45.4202 33.8579H53.47Z" fill="#251725" stroke="#251725" stroke-width="0.731805" stroke-miterlimit="10" stroke-linecap="round" stroke-linejoin="round"/>
<path d="M49.4454 51.2749L36.4924 68.2528" stroke="#251725" stroke-width="2" stroke-miterlimit="10" stroke-linecap="round" stroke-linejoin="round"/>
<path d="M35.6874 62.6179L35.2483 69.7164L42.1273 67.4478L35.6874 62.6179Z" fill="#251725" stroke="#251725" stroke-width="0.731805" stroke-miterlimit="10" stroke-linecap="round" stroke-linejoin="round"/>
<path d="M49.445 55.7391C51.9104 55.7391 53.909 53.7405 53.909 51.275C53.909 48.8096 51.9104 46.811 49.445 46.811C46.9796 46.811 44.981 48.8096 44.981 51.275C44.981 53.7405 46.9796 55.7391 49.445 55.7391Z" fill="#251725" stroke="#251725" stroke-width="0.731805" stroke-miterlimit="10" stroke-linecap="round" stroke-linejoin="round"/>
<path d="M49.957 24.2715C49.0057 24.2715 48.2007 23.4666 48.2007 22.5152V18.8562C48.2007 17.9048 49.0057 17.0999 49.957 17.0999C50.9084 17.0999 51.7134 17.9048 51.7134 18.8562V22.5152C51.6402 23.4666 50.9084 24.2715 49.957 24.2715Z" fill="#251725"/>
<path d="M49.957 87.4263C49.0057 87.4263 48.2007 86.6214 48.2007 85.67V82.011C48.2007 81.0596 49.0057 80.2546 49.957 80.2546C50.9084 80.2546 51.7134 81.0596 51.7134 82.011V85.67C51.6402 86.6945 50.9084 87.4263 49.957 87.4263Z" fill="#251725"/>
<path d="M21.8558 52.2995C21.8558 53.2509 21.0508 54.0559 20.0994 54.0559H16.4404C15.4891 54.0559 14.6841 53.2509 14.6841 52.2995C14.6841 51.3482 15.4891 50.5432 16.4404 50.5432H20.0994C21.124 50.5432 21.8558 51.3482 21.8558 52.2995Z" fill="#251725"/>
<path d="M85.0838 52.2995C85.0838 53.2509 84.2788 54.0559 83.3275 54.0559H79.6684C78.7171 54.0559 77.9121 53.2509 77.9121 52.2995C77.9121 51.3482 78.7171 50.5432 79.6684 50.5432H83.3275C84.2788 50.5432 85.0838 51.3482 85.0838 52.2995Z" fill="#251725"/>
<path d="M30.1255 32.4675C29.4668 33.1261 28.3691 33.1261 27.6373 32.4675L25.076 29.9062C24.4174 29.2476 24.4174 28.1498 25.076 27.418C25.7346 26.7594 26.8323 26.7594 27.5641 27.418L30.1255 29.9794C30.7841 30.7112 30.7841 31.8089 30.1255 32.4675Z" fill="#251725"/>
<path d="M74.7654 77.1809C74.1067 77.8395 73.009 77.8395 72.2772 77.1809L69.7159 74.6196C69.0573 73.9609 69.0573 72.8632 69.7159 72.1314C70.3745 71.4728 71.4722 71.4728 72.204 72.1314L74.7654 74.6927C75.4972 75.3514 75.4972 76.4491 74.7654 77.1809Z" fill="#251725"/>
<path d="M88.8163 43.152C88.4504 43.2252 88.0113 43.2984 87.6454 43.2984C87.1331 43.3715 86.7672 43.7374 86.6209 44.1765L86.1818 45.8597C86.0354 46.5183 85.3768 46.8842 84.7182 46.7378L79.0101 45.3474C78.3515 45.201 77.9856 44.5424 78.1319 43.957L78.571 42.2738C78.7174 41.7616 78.4978 41.3225 78.0588 41.0298C76.5952 40.0784 75.3511 38.8343 74.3266 37.4439C74.0338 37.0048 73.5216 36.8585 73.0825 37.0048L71.3993 37.5171C70.8139 37.6635 70.0821 37.3707 69.9357 36.7121L68.3258 31.0772C68.1794 30.4186 68.4721 29.76 69.1307 29.6136L70.8139 29.1013C71.253 28.955 71.6189 28.5159 71.6921 28.0768C71.7652 27.1986 71.8384 26.3937 72.058 25.5155C72.2775 24.6373 72.5702 23.8323 72.9361 23.1005C73.1557 22.6615 73.0093 22.1492 72.6434 21.7833L71.3993 20.5392C70.9603 20.1001 70.8871 19.3683 71.3993 18.8561L72.1311 18.1243L72.7166 17.5388C74.107 18.7829 75.3511 20.1733 76.522 21.5637C79.2297 24.8569 81.4983 28.5159 84.4987 31.5163C86.4745 35.1021 88.0113 38.9807 88.8163 43.152Z" fill="#251725"/>
<path d="M49.445 23.2469C48.4937 23.2469 47.6887 22.4419 47.6887 21.4906V17.8315C47.6887 16.8802 48.4937 16.0752 49.445 16.0752C50.3964 16.0752 51.2014 16.8802 51.2014 17.8315V21.4906C51.2014 22.4419 50.3964 23.2469 49.445 23.2469Z" fill="#EBEDFD" stroke="#251725" stroke-miterlimit="10" stroke-linecap="round" stroke-linejoin="round"/>
<path d="M49.445 86.4749C48.4937 86.4749 47.6887 85.6699 47.6887 84.7186V81.0596C47.6887 80.1082 48.4937 79.3032 49.445 79.3032C50.3964 79.3032 51.2014 80.1082 51.2014 81.0596V84.7186C51.2014 85.6699 50.3964 86.4749 49.445 86.4749Z" fill="#EBEDFD" stroke="#251725" stroke-miterlimit="10" stroke-linecap="round" stroke-linejoin="round"/>
<path d="M21.4168 51.2751C21.4168 52.2265 20.6118 53.0315 19.6605 53.0315H16.0015C15.0501 53.0315 14.2451 52.2265 14.2451 51.2751C14.2451 50.3238 15.0501 49.5188 16.0015 49.5188H19.6605C20.6118 49.5188 21.4168 50.3238 21.4168 51.2751Z" fill="#EBEDFD" stroke="#251725" stroke-miterlimit="10" stroke-linecap="round" stroke-linejoin="round"/>
<path d="M84.6448 51.2751C84.6448 52.2265 83.8398 53.0315 82.8885 53.0315H79.2295C78.2781 53.0315 77.4731 52.2265 77.4731 51.2751C77.4731 50.3238 78.2781 49.5188 79.2295 49.5188H82.8885C83.8398 49.5188 84.6448 50.3238 84.6448 51.2751Z" fill="#EBEDFD" stroke="#251725" stroke-miterlimit="10" stroke-linecap="round" stroke-linejoin="round"/>
<path d="M29.6132 31.4431C28.9546 32.1017 27.8569 32.1017 27.1251 31.4431L24.5638 28.8818C23.9052 28.2231 23.9052 27.1254 24.5638 26.3936C25.2224 25.735 26.3201 25.735 27.0519 26.3936L29.6132 28.9549C30.2719 29.6867 30.2719 30.7845 29.6132 31.4431Z" fill="#EBEDFD" stroke="#251725" stroke-miterlimit="10" stroke-linecap="round" stroke-linejoin="round"/>
<path d="M74.3266 76.1565C73.668 76.8151 72.5703 76.8151 71.8385 76.1565L69.2772 73.5951C68.6185 72.9365 68.6185 71.8388 69.2772 71.107C69.9358 70.4484 71.0335 70.4484 71.7653 71.107L74.3266 73.6683C74.9852 74.4001 74.9852 75.4978 74.3266 76.1565Z" fill="#EBEDFD" stroke="#251725" stroke-miterlimit="10" stroke-linecap="round" stroke-linejoin="round"/>
<path d="M69.2777 31.4431C68.619 30.7845 68.619 29.6867 69.2777 28.9549L71.839 26.3936C72.4976 25.735 73.5953 25.735 74.3271 26.3936C74.9857 27.0523 74.9857 28.15 74.3271 28.8818L71.7658 31.4431C71.034 32.1017 69.9363 32.1017 69.2777 31.4431Z" fill="#EBEDFD" stroke="#251725" stroke-width="0.731805" stroke-miterlimit="10" stroke-linecap="round" stroke-linejoin="round"/>
<path d="M24.5643 76.1565C23.9057 75.4978 23.9057 74.4001 24.5643 73.6683L27.1256 71.107C27.7842 70.4484 28.8819 70.4484 29.6137 71.107C30.2724 71.7656 30.2724 72.8633 29.6137 73.5951L27.0524 76.1565C26.3938 76.8151 25.2961 76.8151 24.5643 76.1565Z" fill="#EBEDFD" stroke="#251725" stroke-width="0.731805" stroke-miterlimit="10" stroke-linecap="round" stroke-linejoin="round"/>
<path d="M99.5014 25.4422L97.9646 24.564C97.5255 24.3445 97.306 23.8322 97.3792 23.32C97.5255 22.515 97.5987 21.6368 97.5987 20.7586C97.5987 19.8805 97.5255 19.0023 97.3792 18.1973C97.306 17.6851 97.5255 17.246 97.9646 16.9532L99.5014 16.0751C100.087 15.7824 100.233 15.0506 99.9405 14.4651L97.0133 9.41566C96.7206 8.83021 95.9888 8.68385 95.4033 8.97657L93.8665 9.85474C93.4274 10.0743 92.9152 10.0743 92.5493 9.78156C91.232 8.68385 89.7684 7.80569 88.0853 7.22024C87.6462 7.07388 87.3535 6.6348 87.3535 6.12253V4.3662C87.3535 3.70758 86.8412 3.19531 86.1826 3.19531H80.3281C79.6695 3.19531 79.1572 3.70758 79.1572 4.3662V6.12253C79.1572 6.6348 78.8645 7.07388 78.4254 7.22024C76.8155 7.80569 75.2787 8.68385 73.9614 9.78156C73.5955 10.0743 73.0833 10.1475 72.6442 9.85474L71.1074 8.97657C70.5219 8.68385 69.7901 8.83021 69.4974 9.41566L66.5702 14.4651C66.2775 15.0506 66.4238 15.7824 67.0093 16.0751L68.5461 16.9532C68.9851 17.1728 69.2047 17.6851 69.1315 18.1973C68.9851 19.0023 68.912 19.8805 68.912 20.7586C68.912 21.6368 68.9851 22.515 69.1315 23.32C69.2047 23.8322 68.9851 24.2713 68.5461 24.564L67.0093 25.4422C66.4238 25.7349 66.2775 26.4667 66.5702 27.0522L69.4974 32.1016C69.7901 32.6871 70.5219 32.8334 71.1074 32.5407L72.6442 31.6625C73.0833 31.443 73.5955 31.443 73.9614 31.7357C75.2787 32.8334 76.7423 33.7116 78.4254 34.297C78.8645 34.4434 79.1572 34.8825 79.1572 35.3947V37.1511C79.1572 37.8097 79.6695 38.322 80.3281 38.322H86.1826C86.8412 38.322 87.3535 37.8097 87.3535 37.1511V35.4679C87.3535 34.9557 87.6462 34.5166 88.0853 34.3702C89.6952 33.7848 91.232 32.9066 92.5493 31.8089C92.9152 31.5162 93.4274 31.443 93.8665 31.7357L95.4033 32.6139C95.9888 32.9066 96.7206 32.7602 97.0133 32.1748L99.9405 27.1253C100.233 26.4667 100.014 25.8081 99.5014 25.4422ZM83.1822 26.5399C79.9622 26.5399 77.4009 23.9786 77.4009 20.7586C77.4009 17.5387 79.9622 14.9774 83.1822 14.9774C86.4021 14.9774 88.9634 17.5387 88.9634 20.7586C88.9634 23.9786 86.3289 26.5399 83.1822 26.5399Z" fill="#251725"/>
<path d="M98.989 23.2469L97.4522 22.3687C97.0131 22.1492 96.7936 21.6369 96.8667 21.1246C97.0131 20.3197 97.0863 19.4415 97.0863 18.5633C97.0863 17.6852 97.0131 16.807 96.8667 16.002C96.7936 15.4897 97.0131 15.0507 97.4522 14.7579L98.989 13.8798C99.5744 13.587 99.7208 12.8552 99.4281 12.2698L96.5008 7.22035C96.2081 6.6349 95.4763 6.48854 94.8909 6.78126L93.3541 7.65943C92.915 7.87897 92.4027 7.87897 92.0368 7.58625C90.7196 6.48854 89.256 5.61037 87.5728 5.02493C87.1337 4.87857 86.841 4.43949 86.841 3.92722V2.17089C86.841 1.51226 86.3287 1 85.6701 1H79.8157C79.157 1 78.6448 1.51226 78.6448 2.17089V3.92722C78.6448 4.43949 78.3521 4.87857 77.913 5.02493C76.303 5.61037 74.7662 6.48854 73.449 7.58625C73.0831 7.87897 72.5708 7.95215 72.1317 7.65943L70.5949 6.78126C70.0095 6.48854 69.2777 6.6349 68.985 7.22035L66.0577 12.2698C65.765 12.8552 65.9114 13.587 66.4968 13.8798L68.0336 14.7579C68.4727 14.9775 68.6922 15.4897 68.6191 16.002C68.4727 16.807 68.3995 17.6852 68.3995 18.5633C68.3995 19.4415 68.4727 20.3197 68.6191 21.1246C68.6922 21.6369 68.4727 22.076 68.0336 22.3687L66.4968 23.2469C65.9114 23.5396 65.765 24.2714 66.0577 24.8568L68.985 29.9063C69.2777 30.4917 70.0095 30.6381 70.5949 30.3454L72.1317 29.4672C72.5708 29.2477 73.0831 29.2477 73.449 29.5404C74.7662 30.6381 76.2298 31.5163 77.913 32.1017C78.3521 32.2481 78.6448 32.6872 78.6448 33.1994V34.9558C78.6448 35.6144 79.157 36.1266 79.8157 36.1266H85.6701C86.3287 36.1266 86.841 35.6144 86.841 34.9558V33.2726C86.841 32.7603 87.1337 32.3213 87.5728 32.1749C89.1828 31.5895 90.7196 30.7113 92.0368 29.6136C92.4027 29.3209 92.915 29.2477 93.3541 29.5404L94.8909 30.4186C95.4763 30.7113 96.2081 30.5649 96.5008 29.9795L99.4281 24.93C99.7208 24.3446 99.5012 23.6128 98.989 23.2469ZM82.6697 24.3446C79.4498 24.3446 76.8885 21.7833 76.8885 18.5633C76.8885 15.3434 79.4498 12.7821 82.6697 12.7821C85.8897 12.7821 88.451 15.3434 88.451 18.5633C88.451 21.7833 85.8165 24.3446 82.6697 24.3446Z" fill="#FBFBFF"/>
<path d="M98.989 23.2469L97.4522 22.3687C97.0131 22.1492 96.7936 21.6369 96.8667 21.1246C97.0131 20.3197 97.0863 19.4415 97.0863 18.5633C97.0863 17.6852 97.0131 16.807 96.8667 16.002C96.7936 15.4897 97.0131 15.0507 97.4522 14.7579L98.989 13.8798C99.5744 13.587 99.7208 12.8552 99.4281 12.2698L96.5008 7.22035C96.2081 6.6349 95.4763 6.48854 94.8909 6.78126L93.3541 7.65943C92.915 7.87897 92.4027 7.87897 92.0368 7.58625C90.7196 6.48854 89.256 5.61037 87.5728 5.02493C87.1337 4.87857 86.841 4.43949 86.841 3.92722V2.17089C86.841 1.51226 86.3287 1 85.6701 1H79.8157C79.157 1 78.6448 1.51226 78.6448 2.17089V3.92722C78.6448 4.43949 78.3521 4.87857 77.913 5.02493C76.303 5.61037 74.7662 6.48854 73.449 7.58625C73.0831 7.87897 72.5708 7.95215 72.1317 7.65943L70.5949 6.78126C70.0095 6.48854 69.2777 6.6349 68.985 7.22035L66.0577 12.2698C65.765 12.8552 65.9114 13.587 66.4968 13.8798L68.0336 14.7579C68.4727 14.9775 68.6922 15.4897 68.6191 16.002C68.4727 16.807 68.3995 17.6852 68.3995 18.5633C68.3995 19.4415 68.4727 20.3197 68.6191 21.1246C68.6922 21.6369 68.4727 22.076 68.0336 22.3687L66.4968 23.2469C65.9114 23.5396 65.765 24.2714 66.0577 24.8568L68.985 29.9063C69.2777 30.4917 70.0095 30.6381 70.5949 30.3454L72.1317 29.4672C72.5708 29.2477 73.0831 29.2477 73.449 29.5404C74.7662 30.6381 76.2298 31.5163 77.913 32.1017C78.3521 32.2481 78.6448 32.6872 78.6448 33.1994V34.9558C78.6448 35.6144 79.157 36.1266 79.8157 36.1266H85.6701C86.3287 36.1266 86.841 35.6144 86.841 34.9558V33.2726C86.841 32.7603 87.1337 32.3213 87.5728 32.1749C89.1828 31.5895 90.7196 30.7113 92.0368 29.6136C92.4027 29.3209 92.915 29.2477 93.3541 29.5404L94.8909 30.4186C95.4763 30.7113 96.2081 30.5649 96.5008 29.9795L99.4281 24.93C99.7208 24.3446 99.5012 23.6128 98.989 23.2469ZM82.6697 24.3446C79.4498 24.3446 76.8885 21.7833 76.8885 18.5633C76.8885 15.3434 79.4498 12.7821 82.6697 12.7821C85.8897 12.7821 88.451 15.3434 88.451 18.5633C88.451 21.7833 85.8165 24.3446 82.6697 24.3446Z" fill="url(#paint3_linear_2553_20379)"/>
<path d="M98.989 23.2469L97.4522 22.3687C97.0131 22.1492 96.7936 21.6369 96.8667 21.1246C97.0131 20.3197 97.0863 19.4415 97.0863 18.5633C97.0863 17.6852 97.0131 16.807 96.8667 16.002C96.7936 15.4897 97.0131 15.0507 97.4522 14.7579L98.989 13.8798C99.5744 13.587 99.7208 12.8552 99.4281 12.2698L96.5008 7.22035C96.2081 6.6349 95.4763 6.48854 94.8909 6.78126L93.3541 7.65943C92.915 7.87897 92.4027 7.87897 92.0368 7.58625C90.7196 6.48854 89.256 5.61037 87.5728 5.02493C87.1337 4.87857 86.841 4.43949 86.841 3.92722V2.17089C86.841 1.51226 86.3287 1 85.6701 1H79.8157C79.157 1 78.6448 1.51226 78.6448 2.17089V3.92722C78.6448 4.43949 78.3521 4.87857 77.913 5.02493C76.303 5.61037 74.7662 6.48854 73.449 7.58625C73.0831 7.87897 72.5708 7.95215 72.1317 7.65943L70.5949 6.78126C70.0095 6.48854 69.2777 6.6349 68.985 7.22035L66.0577 12.2698C65.765 12.8552 65.9114 13.587 66.4968 13.8798L68.0336 14.7579C68.4727 14.9775 68.6922 15.4897 68.6191 16.002C68.4727 16.807 68.3995 17.6852 68.3995 18.5633C68.3995 19.4415 68.4727 20.3197 68.6191 21.1246C68.6922 21.6369 68.4727 22.076 68.0336 22.3687L66.4968 23.2469C65.9114 23.5396 65.765 24.2714 66.0577 24.8568L68.985 29.9063C69.2777 30.4917 70.0095 30.6381 70.5949 30.3454L72.1317 29.4672C72.5708 29.2477 73.0831 29.2477 73.449 29.5404C74.7662 30.6381 76.2298 31.5163 77.913 32.1017C78.3521 32.2481 78.6448 32.6872 78.6448 33.1994V34.9558C78.6448 35.6144 79.157 36.1266 79.8157 36.1266H85.6701C86.3287 36.1266 86.841 35.6144 86.841 34.9558V33.2726C86.841 32.7603 87.1337 32.3213 87.5728 32.1749C89.1828 31.5895 90.7196 30.7113 92.0368 29.6136C92.4027 29.3209 92.915 29.2477 93.3541 29.5404L94.8909 30.4186C95.4763 30.7113 96.2081 30.5649 96.5008 29.9795L99.4281 24.93C99.7208 24.3446 99.5012 23.6128 98.989 23.2469ZM82.6697 24.3446C79.4498 24.3446 76.8885 21.7833 76.8885 18.5633C76.8885 15.3434 79.4498 12.7821 82.6697 12.7821C85.8897 12.7821 88.451 15.3434 88.451 18.5633C88.451 21.7833 85.8165 24.3446 82.6697 24.3446Z" stroke="#251725" stroke-miterlimit="10" stroke-linecap="round" stroke-linejoin="round"/>
<path d="M21.4177 107.331C31.8048 107.331 40.2251 98.911 40.2251 88.5239C40.2251 78.1369 31.8048 69.7166 21.4177 69.7166C11.0307 69.7166 2.61035 78.1369 2.61035 88.5239C2.61035 98.911 11.0307 107.331 21.4177 107.331Z" fill="#251725" stroke="#251725" stroke-miterlimit="10" stroke-linecap="round" stroke-linejoin="round"/>
<path d="M19.8074 105.282C30.1944 105.282 38.6148 96.8619 38.6148 86.4749C38.6148 76.0878 30.1944 67.6675 19.8074 67.6675C9.42036 67.6675 1 76.0878 1 86.4749C1 96.8619 9.42036 105.282 19.8074 105.282Z" fill="white"/>
<path d="M19.8074 105.282C30.1944 105.282 38.6148 96.8619 38.6148 86.4749C38.6148 76.0878 30.1944 67.6675 19.8074 67.6675C9.42036 67.6675 1 76.0878 1 86.4749C1 96.8619 9.42036 105.282 19.8074 105.282Z" fill="url(#paint4_linear_2553_20379)"/>
<path d="M19.8074 105.282C30.1944 105.282 38.6148 96.8619 38.6148 86.4749C38.6148 76.0878 30.1944 67.6675 19.8074 67.6675C9.42036 67.6675 1 76.0878 1 86.4749C1 96.8619 9.42036 105.282 19.8074 105.282Z" fill="url(#paint5_linear_2553_20379)"/>
<path d="M19.8074 105.282C30.1944 105.282 38.6148 96.8619 38.6148 86.4749C38.6148 76.0878 30.1944 67.6675 19.8074 67.6675C9.42036 67.6675 1 76.0878 1 86.4749C1 96.8619 9.42036 105.282 19.8074 105.282Z" stroke="#251725" stroke-miterlimit="10" stroke-linecap="round" stroke-linejoin="round"/>
<path d="M21.8702 83.8567V81.5111H27.2065V77.8098H12.394V81.5111H17.7452V83.8567C13.2621 84.0723 9.89648 84.9723 9.89648 86.0504C9.89648 87.1286 13.2584 88.0229 17.7452 88.2442V95.9861H21.8702V88.2442C26.3534 88.0304 29.719 87.1304 29.719 86.0504C29.719 84.9704 26.3571 84.0723 21.8702 83.8567ZM19.8077 87.5429C14.9534 87.5429 11.0177 86.7929 11.0177 85.8892C11.0177 85.1111 13.8846 84.4586 17.7415 84.2842V86.9336C18.4052 86.9636 19.0952 86.9804 19.804 86.9804C20.5127 86.9804 21.2065 86.9636 21.8665 86.9336V84.2842C25.7234 84.4586 28.5902 85.1111 28.5902 85.8892C28.5977 86.8023 24.6621 87.5429 19.8077 87.5429Z" fill="#251725"/>
<defs>
<linearGradient id="paint0_linear_2553_20379" x1="27.5453" y1="-10.801" x2="118.846" y2="80.5" gradientUnits="userSpaceOnUse">
<stop offset="0.1" stop-color="#F76DFC"/>
<stop offset="0.7" stop-color="#1288AA"/>
</linearGradient>
<linearGradient id="paint1_linear_2553_20379" x1="90.6115" y1="84.7185" x2="23.442" y2="17.549" gradientUnits="userSpaceOnUse">
<stop stop-color="#DF87F1"/>
<stop offset="0.75" stop-color="#FBFBFF"/>
</linearGradient>
<linearGradient id="paint2_linear_2553_20379" x1="122.662" y1="102.902" x2="23.2958" y2="17.7195" gradientUnits="userSpaceOnUse">
<stop offset="0.3" stop-color="#DF87F1"/>
<stop offset="0.65" stop-color="#FBFBFF"/>
</linearGradient>
<linearGradient id="paint3_linear_2553_20379" x1="103.461" y1="36.1266" x2="68.2179" y2="2.35201" gradientUnits="userSpaceOnUse">
<stop stop-color="#DF87F1"/>
<stop offset="0.75" stop-color="#FBFBFF"/>
</linearGradient>
<linearGradient id="paint4_linear_2553_20379" x1="42.9577" y1="105.282" x2="5.184" y2="67.5086" gradientUnits="userSpaceOnUse">
<stop stop-color="#A1C665"/>
<stop offset="0.75" stop-color="#EBEDFD"/>
</linearGradient>
<linearGradient id="paint5_linear_2553_20379" x1="42.9577" y1="105.282" x2="5.184" y2="67.5086" gradientUnits="userSpaceOnUse">
<stop stop-color="#DF87F1"/>
<stop offset="0.75" stop-color="#FBFBFF"/>
</linearGradient>
</defs>
</svg>
