<svg width="100" height="22" viewBox="0 0 100 22" fill="none" xmlns="http://www.w3.org/2000/svg">
<g clip-path="url(#clip0_2539_10540)">
<path fill-rule="evenodd" clip-rule="evenodd" d="M9.28535 -0.000518799L0 5.46297V11.6049H5.58965L0.00012718 14.8937V21.0408H6.14203L15.4326 15.5773V9.43024H9.83978L15.4324 6.14137V-0.000518799H9.28535Z" fill="url(#paint0_linear_2539_10540)"/>
<path fill-rule="evenodd" clip-rule="evenodd" d="M9.28535 -0.000518799L0 5.46297V11.6049H5.58965L0.00012718 14.8937V21.0408H6.14203L15.4326 15.5773V9.43024H9.83978L15.4324 6.14137V-0.000518799H9.28535Z" fill="url(#paint1_linear_2539_10540)"/>
<path d="M15.4275 -0.000244141H9.28564V6.14165H15.4275V-0.000244141Z" fill="#251725"/>
<path d="M58.0836 15.5358C57.5295 15.5669 57.0686 15.5721 56.6957 15.5565C56.3228 15.5255 56.038 15.4219 55.8464 15.2458C55.6548 15.0646 55.5564 14.7849 55.5564 14.3965V9.74608H58.0836V6.97031H55.5564V3.83722L52.6719 5.541V14.3965C52.6719 15.9346 53.0758 16.9962 53.8785 17.5969C54.6967 18.1925 56.1002 18.3789 58.0836 18.1562V15.541V15.5358Z" fill="#251725"/>
<path d="M35.5828 3.83722L32.6982 5.53582V14.3965C32.6982 15.9346 33.1022 16.9962 33.9049 17.5969C34.7231 18.1925 36.1265 18.3789 38.1099 18.1562V15.541C37.5558 15.5721 37.0949 15.5773 36.7221 15.5617C36.3492 15.5306 36.0644 15.4271 35.8728 15.251C35.6812 15.0697 35.5828 14.7901 35.5828 14.4017V9.75126H38.1099V6.97549H35.5828V3.8424V3.83722Z" fill="#251725"/>
<path d="M48.1405 8.29046C47.2757 7.20294 46.0587 6.65918 44.4947 6.65918C42.9308 6.65918 41.719 7.23401 40.647 8.38367C39.5905 9.5178 39.0571 10.9109 39.0571 12.568C39.0571 14.2252 39.5854 15.6234 40.647 16.7731C41.719 17.9072 43.0033 18.4717 44.4947 18.4717C46.0587 18.4717 47.2757 17.9279 48.1405 16.8404V18.161H51.025V6.9699H48.1405V8.29046ZM47.2446 14.8466C46.6646 15.4266 45.924 15.7167 45.0281 15.7167C44.1322 15.7167 43.3969 15.4266 42.8117 14.8466C42.2317 14.2511 41.9416 13.4898 41.9416 12.5629C41.9416 11.6359 42.2317 10.885 42.8117 10.305C43.3917 9.70941 44.1322 9.40905 45.0281 9.40905C45.924 9.40905 46.6594 9.70941 47.2446 10.305C47.8401 10.885 48.1405 11.641 48.1405 12.5629C48.1405 13.4847 47.8401 14.2459 47.2446 14.8466Z" fill="#251725"/>
<path d="M31.0097 11.5329C30.8595 11.2636 30.6368 11.0047 30.3365 10.7509C30.0361 10.4972 29.772 10.2952 29.5338 10.145C29.3111 9.99486 28.9796 9.8395 28.5498 9.67378C28.1303 9.49253 27.7989 9.36824 27.5451 9.29574C27.3069 9.2077 26.9496 9.08859 26.4732 8.93841C25.308 8.58109 24.5208 8.25483 24.1013 7.95447C23.6974 7.64375 23.4954 7.23981 23.4954 6.74784C23.4954 6.28694 23.6767 5.91407 24.034 5.62925C24.4069 5.32888 24.9144 5.18388 25.5565 5.18388C26.9289 5.18388 27.9284 5.85711 28.555 7.19838L31.1495 5.70175C30.6109 4.59869 29.86 3.73903 28.8916 3.12795C27.9387 2.50133 26.8253 2.19061 25.5565 2.19061C24.1376 2.19061 22.9258 2.61526 21.9108 3.46456C20.9113 4.29833 20.4141 5.42728 20.4141 6.84105C20.4141 7.55571 20.5384 8.18233 20.7922 8.72091C21.0459 9.25949 21.4084 9.70486 21.89 10.0622C22.382 10.404 22.8688 10.6836 23.3453 10.8908C23.8372 11.0979 24.4328 11.3102 25.1371 11.5174C26.4058 11.8747 27.2862 12.2113 27.7782 12.522C28.2702 12.8224 28.5187 13.2471 28.5187 13.796C28.5187 14.2724 28.3168 14.666 27.9128 14.9819C27.5089 15.2926 26.8771 15.4532 26.0123 15.4532C24.2204 15.4532 23.0242 14.6557 22.4131 13.0606L19.772 14.6039C20.207 15.795 20.9475 16.7427 22.0092 17.447C23.0656 18.1305 24.3706 18.4775 25.9242 18.4775C27.6073 18.4775 28.9745 18.0529 30.0154 17.2036C31.0718 16.3543 31.6052 15.2046 31.6052 13.7598C31.6052 13.3144 31.5431 12.9001 31.424 12.5272C31.3204 12.1388 31.1858 11.8126 31.02 11.5433L31.0097 11.5329Z" fill="#251725"/>
<path d="M87.3484 6.97073H84.4639V18.1567H87.3484V6.97073Z" fill="#251725"/>
<path d="M95.9086 12.429L99.8185 6.97073H96.5094L94.2515 10.1245L91.9936 6.97073H88.6585L92.5736 12.4498L88.4824 18.1567H91.8123L94.2515 14.7543L96.6647 18.1567H99.9998L95.9086 12.429Z" fill="#251725"/>
<path d="M81.719 4.01856C80.6885 3.00354 79.4249 2.49603 77.9179 2.49603H72.0815V18.1511H75.168V13.0087H77.9179C79.4249 13.0087 80.6937 12.5012 81.719 11.4862C82.7496 10.4712 83.2623 9.22829 83.2623 7.75237C83.2623 6.27646 82.7496 5.0284 81.719 4.01856ZM79.5388 9.45615C79.1038 9.90152 78.5601 10.1294 77.9075 10.1294H75.1577V5.38573H77.9075C78.5652 5.38573 79.109 5.60841 79.5388 6.05895C79.9738 6.50432 80.1861 7.07397 80.1861 7.75755C80.1861 8.44114 79.9686 8.99525 79.5388 9.45615Z" fill="#251725"/>
<path d="M67.7163 14.7327C67.1519 15.4784 66.3129 15.8513 65.2099 15.8513C63.4957 15.8513 62.4445 15.1522 62.0561 13.7488H70.4869C70.5594 13.3293 70.6009 12.9357 70.6009 12.5629C70.6009 10.8901 70.0623 9.49191 68.9903 8.35778C67.9339 7.22365 66.5822 6.65918 64.9406 6.65918C63.2109 6.65918 61.792 7.22365 60.6889 8.35778C59.5859 9.47637 59.0317 10.8798 59.0317 12.5629C59.0317 14.2459 59.591 15.67 60.7096 16.7886C61.8282 17.9072 63.3093 18.4665 65.1633 18.4665C67.3124 18.4665 68.9385 17.669 70.0416 16.074L67.7163 14.7327ZM63.0193 9.85441C63.5268 9.45048 64.169 9.24851 64.9406 9.24851C65.5983 9.24851 66.1783 9.43494 66.6858 9.8078C67.2088 10.1807 67.5506 10.7451 67.7163 11.5064H62.0146C62.1804 10.7917 62.5118 10.2376 63.0193 9.84923V9.85441Z" fill="#251725"/>
<path d="M87.3484 2.62573H84.4639V5.51025H87.3484V2.62573Z" fill="#251725"/>
</g>
<defs>
<linearGradient id="paint0_linear_2539_10540" x1="-2.85167" y1="8.10228" x2="17.2894" y2="12.4137" gradientUnits="userSpaceOnUse">
<stop stop-color="#DF87F1"/>
<stop offset="1" stop-color="#219F70"/>
</linearGradient>
<linearGradient id="paint1_linear_2539_10540" x1="15.5891" y1="-0.000519213" x2="6.21559" y2="23.5181" gradientUnits="userSpaceOnUse">
<stop offset="0.2" stop-color="#DF87F1"/>
<stop offset="0.8" stop-color="#219F70"/>
</linearGradient>
<clipPath id="clip0_2539_10540">
<rect width="100" height="21.0409" fill="white"/>
</clipPath>
</defs>
</svg>
