<?xml version="1.0" encoding="utf-8"?><svg viewBox="0 0 58 40" xmlns="http://www.w3.org/2000/svg" xmlns:xlink="http://www.w3.org/1999/xlink"><style>:root>svg{display:none}:root>svg:target{display:block}</style><svg viewBox="0 0 8 6" id="arrow" xmlns="http://www.w3.org/2000/svg"><path d="M.625 1.313L4 4.688l3.375-3.375"/></svg><svg viewBox="0 0 41 16" id="arrow-big" xmlns="http://www.w3.org/2000/svg"><path d="M40.707 8.707a1 1 0 000-1.414L34.343.929a1 1 0 10-1.414 1.414L38.586 8l-5.657 5.657a1 1 0 001.414 1.414l6.364-6.364zM0 9h40V7H0v2z"/></svg><svg viewBox="0 0 40 40" id="check" xmlns="http://www.w3.org/2000/svg"><path d="M20 3.75C11.04 3.75 3.75 11.04 3.75 20S11.04 36.25 20 36.25 36.25 28.96 36.25 20 28.96 3.75 20 3.75zm8.457 10.804l-10.5 12.5a1.25 1.25 0 01-.938.446H17a1.25 1.25 0 01-.93-.414l-4.5-5a1.248 1.248 0 01.074-1.787 1.25 1.25 0 011.784.115l3.539 3.931 9.577-11.399a1.25 1.25 0 011.914 1.608z"/></svg><svg viewBox="0 0 40 40" id="crypto" xmlns="http://www.w3.org/2000/svg"><path fill-rule="evenodd" clip-rule="evenodd" d="M20 40C8.954 40 0 31.046 0 20S8.954 0 20 0s20 8.954 20 20-8.954 20-20 20zm2.402-22.759v-2.957h6.768v-4.51H10.744v4.51h6.767v2.956c-5.5.253-9.636 1.343-9.636 2.648 0 1.304 4.136 2.393 9.636 2.647v9.478h4.892v-9.48c5.49-.253 9.617-1.342 9.617-2.646 0-1.303-4.126-2.392-9.618-2.646zm0 4.488v-.003c-.137.01-.846.053-2.427.053a52.39 52.39 0 01-2.464-.053v.004c-4.86-.214-8.487-1.06-8.487-2.073 0-1.01 3.627-1.857 8.487-2.075v3.305a36.96 36.96 0 002.485.077c1.509 0 2.265-.063 2.407-.075v-3.304c4.85.216 8.468 1.063 8.468 2.072 0 1.013-3.618 1.857-8.468 2.072z"/></svg><svg viewBox="0 0 24 24" id="facebook" xmlns="http://www.w3.org/2000/svg"><path d="M14 13.5h2.5l1-4H14v-2c0-1.03 0-2 2-2h1.5V2.14c-.326-.043-1.557-.14-2.857-.14C11.928 2 10 3.657 10 6.7v2.8H7v4h3V22h4v-8.5z"/></svg><svg viewBox="0 0 20 20" id="globe" xmlns="http://www.w3.org/2000/svg"><path d="M13.31 13.457a12.97 12.97 0 00.442-2.65.172.172 0 00-.174-.182h-2.776a.174.174 0 00-.174.171v2.16a.173.173 0 00.162.172 10.69 10.69 0 012.304.445.174.174 0 00.217-.116zm-.67 1.282a10.16 10.16 0 00-1.82-.355.173.173 0 00-.192.167V17.1a.175.175 0 00.264.144c.62-.362 1.133-.97 1.595-1.774.076-.132.191-.358.26-.496a.168.168 0 00-.107-.235zm-3.45-.349c-.616.058-1.224.174-1.819.344-.103.03-.146.172-.1.265.07.14.157.317.23.45.509.898 1.05 1.465 1.612 1.794a.175.175 0 00.264-.144v-2.55a.162.162 0 00-.187-.16zm.012-3.766H6.427a.172.172 0 00-.174.181c.058.901.21 1.842.44 2.65a.173.173 0 00.15.124c.023.003.046 0 .068-.007.75-.232 1.523-.38 2.305-.443a.174.174 0 00.162-.171v-2.162a.173.173 0 00-.175-.172zm1.617-5.009a9.211 9.211 0 001.817-.357.168.168 0 00.108-.234c-.07-.14-.167-.34-.241-.472-.48-.86-1.021-1.46-1.611-1.797a.175.175 0 00-.264.144v2.548a.171.171 0 00.12.161c.023.008.047.01.071.007zm-.018 3.759h2.776a.171.171 0 00.174-.179c-.057-.89-.206-1.867-.436-2.665a.174.174 0 00-.218-.115c-.742.224-1.515.407-2.308.469a.172.172 0 00-.162.169v2.152a.171.171 0 00.174.169zM9.114 2.756c-.603.335-1.14.955-1.62 1.812-.075.133-.164.316-.235.455a.168.168 0 00.108.235 8.806 8.806 0 001.818.358.173.173 0 00.192-.168V2.901a.175.175 0 00-.263-.145zm.102 4.13c-.793-.061-1.567-.245-2.309-.47a.174.174 0 00-.218.116c-.23.797-.378 1.775-.436 2.664a.171.171 0 00.174.18h2.776a.172.172 0 00.175-.17V7.054a.172.172 0 00-.162-.169z"/><path d="M16.187 3.813A8.75 8.75 0 103.813 16.187 8.75 8.75 0 1016.187 3.813zM6.9 16.83a8.556 8.556 0 01-.488-.768 16.405 16.405 0 01-.263-.513.285.285 0 00-.402-.123 9.35 9.35 0 00-.552.33 5.754 5.754 0 01-.921-.877 9.72 9.72 0 011.188-.717c.072-.04.108-.084.085-.164a14.64 14.64 0 01-.55-3.21.17.17 0 00-.168-.162H2.61a.078.078 0 01-.078-.067A3.84 3.84 0 012.5 10a3.76 3.76 0 01.034-.558.078.078 0 01.078-.067h2.216c.09 0 .163-.051.168-.141.063-1.083.246-2.155.547-3.197a.17.17 0 00-.086-.2c-.403-.206-.793-.44-1.165-.699.272-.325.574-.623.904-.89.159.104.367.223.533.316a.308.308 0 00.43-.133 9.74 9.74 0 01.237-.464c.149-.268.312-.528.49-.778A7.227 7.227 0 0110 2.5c1.13 0 2.184.273 3.146.721a7.882 7.882 0 01.768 1.34.167.167 0 00.231.077c.21-.114.438-.245.638-.377.33.27.634.571.907.899a9.564 9.564 0 01-1.135.676.17.17 0 00-.086.2c.306 1.035.488 2.102.541 3.18a.169.169 0 00.168.16l2.212-.002a.078.078 0 01.078.066c.046.372.046.747 0 1.118a.078.078 0 01-.078.067h-2.214a.17.17 0 00-.168.163 14.35 14.35 0 01-.541 3.176.174.174 0 00.085.203c.195.101.413.214.6.329.188.114.374.237.553.364a6.677 6.677 0 01-.899.896 9.135 9.135 0 00-.306-.193l-.26-.147c-.15-.083-.308-.02-.382.133-.075.154-.19.375-.269.518a8.273 8.273 0 01-.482.763c-.962.45-1.976.67-3.107.67-1.13 0-2.14-.22-3.101-.67z"/></svg><svg viewBox="0 0 40 40" id="home" xmlns="http://www.w3.org/2000/svg"><path d="M20.434 7.913a.625.625 0 00-.864 0L5.187 21.653a.624.624 0 00-.192.453L4.992 35a2.5 2.5 0 002.5 2.5H15a1.25 1.25 0 001.25-1.25V25.626a.625.625 0 01.625-.625h6.25a.625.625 0 01.625.625V36.25A1.25 1.25 0 0025 37.5h7.505a2.5 2.5 0 002.5-2.5V22.106a.626.626 0 00-.193-.453L20.434 7.913z"/><path d="M38.353 19.076l-5.843-5.59V5.002a1.25 1.25 0 00-1.25-1.25h-3.75a1.25 1.25 0 00-1.25 1.25v2.5l-4.525-4.326c-.424-.428-1.053-.674-1.734-.674-.678 0-1.306.246-1.73.675L1.654 19.075c-.486.469-.547 1.24-.105 1.748a1.249 1.249 0 001.811.082l16.211-15.49a.625.625 0 01.864 0l16.213 15.49a1.25 1.25 0 001.765-.034c.48-.497.44-1.317-.06-1.794z"/></svg><svg viewBox="0 0 24 24" id="instagram" xmlns="http://www.w3.org/2000/svg"><path d="M13.028 2c1.125.003 1.696.009 2.19.023l.193.007c.224.008.445.018.712.03 1.064.05 1.79.218 2.427.465.66.254 1.216.598 1.772 1.153.509.5.902 1.105 1.153 1.772.247.637.415 1.363.465 2.428.012.266.022.487.03.712l.006.194c.015.492.021 1.063.023 2.188l.001.746v1.31c.003.73-.005 1.459-.023 2.188l-.006.194c-.008.225-.018.446-.03.712-.05 1.065-.22 1.79-.466 2.428a4.883 4.883 0 01-1.153 1.772c-.5.508-1.105.902-1.772 1.153-.637.247-1.363.415-2.427.465-.237.011-.475.021-.712.03l-.194.006c-.493.014-1.064.021-2.189.023l-.746.001h-1.309c-.73.003-1.46-.005-2.189-.023l-.194-.006c-.237-.009-.475-.02-.712-.031-1.064-.05-1.79-.218-2.428-.465a4.89 4.89 0 01-1.77-1.153 4.903 4.903 0 01-1.155-1.772c-.247-.637-.415-1.363-.465-2.428a74.175 74.175 0 01-.03-.712l-.005-.194A79.049 79.049 0 012 13.028v-2.056c-.003-.73.005-1.459.022-2.188l.007-.194c.008-.225.018-.446.03-.712.05-1.065.218-1.79.465-2.428A4.88 4.88 0 013.68 3.678a4.897 4.897 0 011.77-1.153c.638-.247 1.363-.415 2.428-.465.266-.012.488-.022.712-.03l.194-.006c.73-.018 1.459-.025 2.188-.023L13.028 2zM12 7a5 5 0 100 10 5 5 0 000-10zm0 2a3 3 0 110 6 3 3 0 010-6m5.25-3.5a1.25 1.25 0 100 2.5 1.25 1.25 0 000-2.5z"/></svg><svg viewBox="0 0 30 40" id="logo" xmlns="http://www.w3.org/2000/svg"><path fill-rule="evenodd" clip-rule="evenodd" d="M17.652 0L0 10.386v11.676h10.626L0 28.314V40h11.676l17.661-10.386V17.928H18.706l10.631-6.252V0H17.652z"/><path fill-rule="evenodd" clip-rule="evenodd" d="M17.652 0L0 10.386v11.676h10.626L0 28.314V40h11.676l17.661-10.386V17.928H18.706l10.631-6.252V0H17.652z"/></svg><svg viewBox="0 0 58 26" id="register" xmlns="http://www.w3.org/2000/svg"><path d="M43.232 11.092a.951.951 0 00-.95-.95h-1.584v1.9h1.584a.952.952 0 00.95-.95zm-37.361 0a.952.952 0 00-.95-.95H3.335v1.9H4.92a.952.952 0 00.95-.95z"/><path d="M52.589.116H5.41A5.122 5.122 0 00.29 5.24v15.52a5.122 5.122 0 005.122 5.124H52.59a5.122 5.122 0 005.122-5.124V5.24A5.122 5.122 0 0052.589.116zM7.002 16.117a.702.702 0 11-1.09.889L3.334 13.84v2.717a.703.703 0 11-1.407 0v-7.12a.703.703 0 01.703-.702h2.29a2.357 2.357 0 110 4.713h-.092l2.174 2.668zm5.435-3.82a.703.703 0 110 1.406H9.78v2.155h2.658a.703.703 0 010 1.406H9.312a.937.937 0 01-.937-.937V9.67a.937.937 0 01.938-.938h3.128a.703.703 0 010 1.406h-2.66v2.158h2.656zm8.269 2.188c-.526 1.663-1.897 2.78-3.413 2.78-2.004 0-3.645-1.913-3.645-4.265 0-2.352 1.641-4.264 3.645-4.264 1.164 0 2.227.625 2.92 1.715a.703.703 0 11-1.188.754c-.429-.675-1.055-1.063-1.732-1.063-1.232 0-2.238 1.282-2.238 2.858s1.002 2.858 2.233 2.858c.61 0 1.19-.331 1.606-.881h-.75a.703.703 0 110-1.406h1.885a.704.704 0 01.672.914h.005zm2.132 2.076a.703.703 0 01-1.406 0V9.44a.703.703 0 011.406 0v7.122zm5.539-1.627a2.49 2.49 0 01-2.481 2.33h-.159a2.482 2.482 0 01-2.019-1.277.703.703 0 011.23-.682 1.08 1.08 0 101.146-1.585.867.867 0 01-.283-.023 2.488 2.488 0 112.11-4.181.703.703 0 11-1.019.97 1.08 1.08 0 10-.911 1.81h.006l.154.01h.038a2.487 2.487 0 012.188 2.628zm4.53-4.792H31.6v6.42a.703.703 0 01-1.406 0v-6.42H28.89a.703.703 0 110-1.406h4.018a.703.703 0 110 1.406zm5.173 2.155a.703.703 0 110 1.406h-2.658v2.155h2.658a.703.703 0 010 1.406h-3.13a.937.937 0 01-.937-.937V9.67a.938.938 0 01.938-.938h3.129a.703.703 0 010 1.406h-2.658v2.158h2.658zm6.285 3.82a.704.704 0 01-1.092.889l-2.578-3.165v2.717a.703.703 0 01-1.406 0v-7.12a.703.703 0 01.703-.702h2.288a2.356 2.356 0 110 4.713h-.093l2.178 2.668zm3 1.147a.702.702 0 01-.497-1.2L49.932 13l-3.064-3.064a.703.703 0 01.994-.994l3.562 3.561a.703.703 0 010 .994l-3.557 3.561a.703.703 0 01-.501.206zm8.5-3.767l-3.562 3.561a.703.703 0 01-.994-.994L54.372 13 51.31 9.936a.703.703 0 01.994-.994l3.561 3.561a.703.703 0 010 .994z"/></svg><svg viewBox="0 0 24 24" id="telegram" xmlns="http://www.w3.org/2000/svg"><g clip-path="url(#ka)"><path fill-rule="evenodd" clip-rule="evenodd" d="M19.777 4.43a1.5 1.5 0 012.062 1.626L19.57 19.813c-.22 1.327-1.676 2.088-2.893 1.427-1.018-.553-2.53-1.405-3.89-2.294-.68-.445-2.763-1.87-2.507-2.884C10.5 15.195 14 11.937 16 10c.785-.761.427-1.2-.5-.5-2.302 1.738-5.998 4.381-7.22 5.125-1.078.656-1.64.768-2.312.656-1.226-.204-2.363-.52-3.291-.905-1.254-.52-1.193-2.244-.001-2.746l17.1-7.2z"/></g><defs><clipPath id="ka"><path d="M0 0h24v24H0z"/></clipPath></defs></svg><svg viewBox="0 0 24 24" id="twitter" xmlns="http://www.w3.org/2000/svg"><path d="M17.751 3h3.067l-6.7 7.625L22 21h-6.172l-4.833-6.293L5.464 21h-3.07l7.167-8.155L2 3h6.328l4.37 5.752L17.751 3zm-1.076 16.172h1.7L7.404 4.732H5.58l11.095 14.44z"/></svg><svg viewBox="0 0 40 40" id="wallet" xmlns="http://www.w3.org/2000/svg"><path d="M7.46 8.121h25c.293 0 .584.019.874.056a5.157 5.157 0 00-6.056-4.34l-20.56 3.51h-.023a5.156 5.156 0 00-3.209 2.04 6.841 6.841 0 013.975-1.266zm25 1.879h-25a5.006 5.006 0 00-5 5v15a5.006 5.006 0 005 5h25a5.005 5.005 0 005-5V15a5.006 5.006 0 00-5-5zm-3.71 15a2.5 2.5 0 110-5 2.5 2.5 0 010 5z"/><path d="M2.5 20.27v-7.774c0-1.693.938-4.532 4.191-5.146 2.762-.518 5.497-.518 5.497-.518s1.796 1.25.312 1.25-1.445 1.914 0 1.914 0 1.836 0 1.836l-5.82 6.601L2.5 20.27z"/></svg></svg>